<svg id="Livello_1" data-name="Livello 1" xmlns="http://www.w3.org/2000/svg" xmlns:xlink="http://www.w3.org/1999/xlink" viewBox="0 0 542.11 150.47"><defs><style>.cls-1{fill:none;}.cls-2{fill:#1d1d1b;}.cls-3{fill:#fff;}.cls-4{clip-path:url(#clip-path);}</style><clipPath id="clip-path"><rect class="cls-1" width="542.11" height="150.47"/></clipPath></defs><title>banner_DIDA_nero</title><polygon class="cls-2" points="352.21 150.47 348.89 150.47 348.89 0 352.21 0 352.21 150.47 352.21 150.47"/><path class="cls-2" d="M385.5,58.22h5c7.86,0,9.07-6.41,9.07-10.28,0-2.6-.75-9.82-10-9.82h-4v20.1ZM372.79,27.55h20.85c13.69,0,18.6,10.17,18.6,20.56,0,12.71-6.7,20.68-21.08,20.68H372.79V27.55Z"/><polygon class="cls-2" points="416.92 27.55 429.62 27.55 429.62 68.79 416.92 68.79 416.92 27.55 416.92 27.55"/><path class="cls-2" d="M448,58.22h5c7.86,0,9.07-6.41,9.07-10.28,0-2.6-.75-9.82-10-9.82h-4v20.1Zm-12.7-30.67h20.85c13.69,0,18.59,10.17,18.59,20.56,0,12.71-6.69,20.68-21.08,20.68H435.34V27.55Z"/><path class="cls-2" d="M500.89,54.06l-3.7-12.7h-.11l-4,12.7Zm-10-26.51h12.42l15,41.24H505.16l-1.73-5.89H490.32l-1.85,5.89H475.71L490.9,27.55Z"/><path class="cls-2" d="M373.26,95.45h3.31c1.37,0,5-.38,5-5.9,0-3.57-1.32-5.73-5-5.73h-3.35V95.45Zm-2-13.31h5.14c4.62,0,7.21,2.33,7.21,7.14,0,5-2.21,7.85-7.21,7.85h-5.14v-15Z"/><polygon class="cls-2" points="385.88 82.14 387.87 82.14 387.87 97.13 385.88 97.13 385.88 82.14 385.88 82.14"/><path class="cls-2" d="M393,89.32h3.91c2.27,0,3.27-1,3.27-2.75s-1-2.75-3.27-2.75H393v5.5Zm-2-7.18h6.57c3,0,4.6,1.63,4.6,4.43s-1.6,4.45-4.6,4.43H393v6.13h-2v-15Z"/><path class="cls-2" d="M405.36,90.93h5.08l-2.49-7h-.05l-2.54,7Zm1.49-8.79h2.21l5.86,15h-2.21l-1.63-4.52h-6.35l-1.68,4.52H401l5.85-15Z"/><path class="cls-2" d="M422.29,89c1.85,0,3.46-.48,3.46-2.66a2.36,2.36,0,0,0-2.66-2.56h-5V89Zm-6.15-6.9h7.05c2.84,0,4.56,1.51,4.56,3.92a3.56,3.56,0,0,1-2.61,3.8v0c1.75.33,2.08,1.63,2.25,3.08s0,3.13.88,4.14h-2.22c-.57-.61-.25-2.23-.55-3.7s-.57-2.71-2.5-2.71h-4.87v6.41h-2v-15Z"/><polygon class="cls-2" points="433.29 83.82 428.3 83.82 428.3 82.14 440.29 82.14 440.29 83.82 435.29 83.82 435.29 97.13 433.29 97.13 433.29 83.82 433.29 83.82"/><polygon class="cls-2" points="441.78 82.14 443.77 82.14 443.77 97.13 441.78 97.13 441.78 82.14 441.78 82.14"/><polygon class="cls-2" points="446.92 82.14 449.65 82.14 454.38 94.73 459.12 82.14 461.85 82.14 461.85 97.13 459.96 97.13 459.96 84.66 459.92 84.66 455.24 97.13 453.54 97.13 448.85 84.66 448.81 84.66 448.81 97.13 446.92 97.13 446.92 82.14 446.92 82.14"/><polygon class="cls-2" points="464.92 82.14 475.27 82.14 475.27 83.82 466.92 83.82 466.92 88.58 474.7 88.58 474.7 90.26 466.92 90.26 466.92 95.45 475.33 95.45 475.33 97.13 464.92 97.13 464.92 82.14 464.92 82.14"/><polygon class="cls-2" points="477.48 82.14 479.6 82.14 487.49 94.29 487.54 94.29 487.54 82.14 489.43 82.14 489.43 97.13 487.24 97.13 479.41 85.1 479.37 85.1 479.37 97.13 477.48 97.13 477.48 82.14 477.48 82.14"/><polygon class="cls-2" points="495.81 83.82 490.81 83.82 490.81 82.14 502.8 82.14 502.8 83.82 497.8 83.82 497.8 97.13 495.81 97.13 495.81 83.82 495.81 83.82"/><path class="cls-2" d="M510.55,95.8c3.65,0,5.19-3.14,5.19-6.17s-1.54-6.17-5.19-6.17-5.19,3.15-5.19,6.17,1.54,6.17,5.19,6.17Zm0-14c4.77,0,7.18,3.76,7.18,7.85s-2.41,7.85-7.18,7.85-7.18-3.75-7.18-7.85,2.41-7.85,7.18-7.85Z"/><path class="cls-2" d="M527.5,95.45h3.31c1.37,0,5-.38,5-5.9,0-3.57-1.32-5.73-5-5.73H527.5V95.45Zm-2-13.31h5.15c4.62,0,7.2,2.33,7.2,7.14,0,5-2.2,7.85-7.2,7.85H525.5v-15Z"/><polygon class="cls-2" points="540.12 82.14 542.11 82.14 542.11 97.13 540.12 97.13 540.12 82.14 540.12 82.14"/><path class="cls-2" d="M373.84,113.64h5.08l-2.49-7h-.05l-2.54,7Zm1.49-8.8h2.21l5.86,15h-2.21l-1.64-4.52h-6.34l-1.68,4.52h-2l5.85-15Z"/><path class="cls-2" d="M390.77,111.74c1.85,0,3.46-.48,3.46-2.66a2.36,2.36,0,0,0-2.66-2.56h-5v5.22Zm-6.15-6.9h7.05c2.83,0,4.56,1.51,4.56,3.92a3.56,3.56,0,0,1-2.61,3.8v0c1.75.33,2.08,1.63,2.25,3.08s0,3.13.88,4.14h-2.22c-.57-.61-.26-2.23-.55-3.7s-.57-2.71-2.5-2.71h-4.87v6.41h-2v-15Z"/><path class="cls-2" d="M409.29,109.35a4,4,0,0,0-4.2-3.19c-3.57,0-5.08,2.94-5.08,6.07,0,3.42,1.51,6.28,5.1,6.28,2.61,0,4.16-1.85,4.33-4.33h2c-.4,3.76-2.69,6-6.49,6-4.64,0-6.92-3.45-6.92-7.81s2.47-7.9,7.09-7.9c3.13,0,5.73,1.68,6.17,4.87Z"/><polygon class="cls-2" points="413.66 104.84 415.65 104.84 415.65 111.28 423.55 111.28 423.55 104.84 425.54 104.84 425.54 119.83 423.55 119.83 423.55 112.96 415.65 112.96 415.65 119.83 413.66 119.83 413.66 104.84 413.66 104.84"/><polygon class="cls-2" points="428.65 104.84 430.65 104.84 430.65 119.83 428.65 119.83 428.65 104.84 428.65 104.84"/><polygon class="cls-2" points="437.16 106.52 432.16 106.52 432.16 104.84 444.15 104.84 444.15 106.52 439.15 106.52 439.15 119.83 437.16 119.83 437.16 106.52 437.16 106.52"/><polygon class="cls-2" points="445.56 104.84 455.91 104.84 455.91 106.52 447.55 106.52 447.55 111.28 455.34 111.28 455.34 112.96 447.55 112.96 447.55 118.15 455.97 118.15 455.97 119.83 445.56 119.83 445.56 104.84 445.56 104.84"/><polygon class="cls-2" points="461.54 106.52 456.54 106.52 456.54 104.84 468.53 104.84 468.53 106.52 463.53 106.52 463.53 119.83 461.54 119.83 461.54 106.52 461.54 106.52"/><polygon class="cls-2" points="473.34 106.52 468.34 106.52 468.34 104.84 480.33 104.84 480.33 106.52 475.33 106.52 475.33 119.83 473.34 119.83 473.34 106.52 473.34 106.52"/><path class="cls-2" d="M493.71,114.41c0,3.8-2.14,5.78-5.9,5.78s-6.15-1.79-6.15-5.78v-9.57h2v9.57c0,2.67,1.49,4.1,4.16,4.1s3.9-1.43,3.9-4.1v-9.57h2v9.57Z"/><path class="cls-2" d="M502.8,111.74c1.85,0,3.47-.48,3.47-2.66a2.36,2.36,0,0,0-2.67-2.56h-5v5.22Zm-6.15-6.9h7.05c2.84,0,4.56,1.51,4.56,3.92a3.56,3.56,0,0,1-2.6,3.8v0c1.74.33,2.07,1.63,2.24,3.08s.05,3.13.89,4.14h-2.23c-.57-.61-.25-2.23-.55-3.7s-.56-2.71-2.49-2.71h-4.88v6.41h-2v-15Z"/><path class="cls-2" d="M513.36,113.64h5.09l-2.5-7h0l-2.55,7Zm1.49-8.8h2.21l5.86,15h-2.21l-1.63-4.52h-6.35l-1.67,4.52H509l5.85-15Z"/><polygon class="cls-2" points="144.5 150.47 141.02 150.47 141.02 0 144.5 0 144.5 150.47 144.5 150.47"/><path class="cls-2" d="M316.8,107.29c0,3.66,0,6.66-.19,8.26-.16,1.11-.35,2-1.11,2.1a6.36,6.36,0,0,1-1.14.15c-.23,0-.31.11-.31.23s.19.3.61.3c1.15,0,3.54-.11,3.73-.11,1.11,0,3.66.23,9.41.23,1.48,0,1.79,0,2.06-1a37.07,37.07,0,0,0,.49-3.7c0-.26,0-.57-.23-.57s-.26.16-.34.57c-.27,1.56-.72,2.33-1.71,2.75a11.17,11.17,0,0,1-3.66.41c-3.73,0-4.3-.49-4.42-3.12,0-.8,0-5.22,0-6.51v-3.35a.25.25,0,0,1,.27-.27c.65,0,4.42.08,5.44.19,1.49.16,1.83.8,2,1.34a3.89,3.89,0,0,1,.15,1.25c0,.19.07.35.26.35s.27-.42.27-.73.08-1.67.15-2.43c.12-1.26.31-1.91.31-2.14s-.08-.3-.19-.3-.31.19-.57.49-.88.46-1.79.54-5.56.07-6.06.07c-.19,0-.23-.11-.23-.38V91.41c0-.26.08-.38.23-.38.42,0,4.57,0,5.22.12,2.05.23,2.44.68,2.7,1.29a4.14,4.14,0,0,1,.23,1.37c0,.31.08.5.31.5s.22-.23.26-.42c.08-.46.15-2.13.19-2.51.12-1.07.31-1.53.31-1.79s0-.35-.16-.35-.34.16-.53.19a8.85,8.85,0,0,1-1.64.19c-.87,0-8.45,0-8.72,0s-2.58-.11-4.3-.11c-.42,0-.61.07-.61.3s.16.23.31.23a6.73,6.73,0,0,1,1.29.12c1.26.26,1.56.87,1.64,2.17s.08,2.28.08,8.22v6.7Zm-26.12,9.41c5.78-8.76,11.53-17.52,17.05-26.28a.6.6,0,0,0,.16-.45c0-.23-.19-.31-.76-.31H296.5c-1.18,0-3,0-6.62-.11a10.49,10.49,0,0,1-1.6-.27c-.23,0-.31.19-.38.72-.19,1.15-.76,4.61-.76,5.07,0,.3,0,.49.22.49s.35-.11.42-.68a4.3,4.3,0,0,1,2.17-3c1.22-.65,3.54-.76,5.49-.76h8.26c-5.29,8.6-11,17.17-16.72,25.74-.45.68-.53.87-.53,1.06s.23.31.69.31c6.66,0,13.06.19,19.41.19.88,0,.92-.08,1.15-1a25.75,25.75,0,0,0,.76-4.38c0-.72-.08-.88-.31-.88s-.26.23-.34.61a6.2,6.2,0,0,1-.76,2.06c-.8,1.14-2,1.87-6,1.87ZM254.93,94.92c1.21,1.37,5.52,6.16,9.93,10.92,4,4.34,9.52,9.94,9.94,10.32,2,2,2.47,2.44,2.78,2.44s.34-.19.34-2.7L278,93.58c0-2.28.15-3.12,1.41-3.38a3.16,3.16,0,0,1,.91-.12c.27,0,.42-.11.42-.27s-.27-.26-.69-.26c-1.56,0-2.81.11-3.23.11s-2.25-.11-4-.11c-.46,0-.76,0-.76.26s0,.27.3.27a10.39,10.39,0,0,1,1.87.19c1.18.31,1.44,1.14,1.48,3.62l.42,19.34c-1.22-1.26-5.37-5.9-9.14-9.94-5.86-6.28-11.53-12.41-12.1-13.06-.39-.38-1-1.22-1.34-1.22s-.42.42-.42,1.91l0,21.82c0,3.46-.19,4.56-1.15,4.83a5.45,5.45,0,0,1-1.56.23c-.19,0-.3.08-.3.23s.23.3.61.3c1.71,0,3.31-.11,3.65-.11s1.87.11,4,.11c.46,0,.68-.07.68-.3s-.11-.23-.3-.23a8.49,8.49,0,0,1-1.91-.23c-1-.3-1.4-1.29-1.48-4.42l-.49-18.23Zm-23.76,12.37c0,3.66,0,6.66-.19,8.26-.16,1.11-.35,2-1.11,2.1a6.36,6.36,0,0,1-1.14.15c-.23,0-.3.11-.3.23s.19.3.61.3c1.14,0,3.54-.11,3.73-.11,1.1,0,3.65.23,9.4.23,1.49,0,1.79,0,2.06-1a37.07,37.07,0,0,0,.49-3.7c0-.26,0-.57-.23-.57s-.26.16-.34.57c-.27,1.56-.72,2.33-1.71,2.75a11.17,11.17,0,0,1-3.66.41c-3.73,0-4.3-.49-4.42-3.12,0-.8,0-5.22,0-6.51v-3.35a.25.25,0,0,1,.27-.27c.65,0,4.42.08,5.45.19,1.48.16,1.82.8,2,1.34a3.89,3.89,0,0,1,.15,1.25c0,.19.07.35.27.35s.26-.42.26-.73.08-1.67.15-2.43c.12-1.26.31-1.91.31-2.14s-.08-.3-.19-.3-.31.19-.57.49-.88.46-1.79.54-5.56.07-6.06.07c-.19,0-.23-.11-.23-.38V91.41c0-.26.08-.38.23-.38.42,0,4.57,0,5.22.12,2.06.23,2.44.68,2.7,1.29a4.14,4.14,0,0,1,.23,1.37c0,.31.08.5.31.5s.22-.23.26-.42c.08-.46.15-2.13.19-2.51.12-1.07.31-1.53.31-1.79s0-.35-.15-.35-.35.16-.54.19a8.85,8.85,0,0,1-1.64.19c-.87,0-8.45,0-8.71,0s-2.59-.11-4.31-.11c-.42,0-.61.07-.61.3s.16.23.31.23a6.73,6.73,0,0,1,1.29.12c1.26.26,1.56.87,1.64,2.17s.08,2.28.08,8.22v6.7ZM205.5,91.45a.47.47,0,0,1,.31-.46,11.92,11.92,0,0,1,2.55-.22c4.07,0,6.59,2.85,6.59,7.61,0,2.9-1,5-2.33,5.87a5,5,0,0,1-2.85.72,10.53,10.53,0,0,1-4-.61.5.5,0,0,1-.27-.46V91.45Zm-3,15.84c0,3.66,0,6.66-.19,8.26-.15,1.11-.34,2-1.11,2.1a6.36,6.36,0,0,1-1.14.15c-.23,0-.3.11-.3.23s.19.3.61.3c1.14,0,3.54-.11,3.57-.11.2,0,2.59.11,4.69.11.42,0,.61-.11.61-.3s-.08-.23-.31-.23-1.18-.08-1.71-.15c-1.14-.15-1.37-1-1.48-2.1-.2-1.6-.2-4.6-.2-8.26v-.91c0-.19.08-.31.27-.31l4.68.08a.63.63,0,0,1,.5.23c.76,1,2.55,3.54,4.15,5.63,2.17,2.86,3.5,4.72,5.14,5.6a7.77,7.77,0,0,0,4.07.72H227c.68,0,.91-.07.91-.3s-.15-.23-.34-.23a9.56,9.56,0,0,1-1.49-.11,7.93,7.93,0,0,1-4.64-2.75c-2.21-2.36-4.8-5.75-7.92-9.74,3.42-3.16,4.6-6,4.6-8.8a6.67,6.67,0,0,0-2.62-5.18c-2-1.44-4.57-1.67-7-1.67-1.18,0-4.07.11-4.49.11-.19,0-2.59-.11-4.3-.11-.42,0-.61.07-.61.3s.15.23.3.23a6.73,6.73,0,0,1,1.29.12c1.26.26,1.57.87,1.64,2.17s.08,2.28.08,8.22v6.7Zm-13.56-6.7c0-5.94,0-7,.08-8.22s.38-2,1.41-2.17a5.38,5.38,0,0,1,1-.12c.15,0,.31-.08.31-.23s-.2-.3-.61-.3c-1.15,0-3.55.11-3.74.11s-2.58-.11-3.84-.11c-.42,0-.61.07-.61.3s.15.23.3.23a5.13,5.13,0,0,1,1.18.15c.84.19,1.22.84,1.3,2.14s.08,2.28.08,8.22v6.7c0,3.66,0,6.66-.19,8.26-.16,1.11-.35,2-1.11,2.1a6.36,6.36,0,0,1-1.14.15c-.23,0-.31.11-.31.23s.19.3.61.3c1.15,0,3.54-.11,3.73-.11s2.59.11,4.69.11c.42,0,.61-.11.61-.3s-.08-.23-.31-.23-1.18-.08-1.71-.15c-1.14-.15-1.37-1-1.48-2.1-.2-1.6-.2-4.6-.2-8.26v-6.7Zm-25.73,6.7c0,3.66,0,6.66-.2,8.26-.15,1.11-.34,2-1.1,2.1a6.36,6.36,0,0,1-1.14.15c-.23,0-.31.11-.31.23s.2.3.61.3c1.15,0,3.54-.11,3.73-.11s2.59.11,4.69.11c.42,0,.61-.11.61-.3s-.08-.23-.31-.23-1.18-.08-1.71-.15c-1.14-.15-1.37-1-1.49-2.1-.19-1.6-.19-4.6-.19-8.26v-3.24c0-.26.08-.34.27-.34.65,0,4.8,0,5.75.12a2.29,2.29,0,0,1,2,1.37,6.64,6.64,0,0,1,.23,1.37c0,.19.07.34.26.34s.27-.38.27-.72.08-1.79.15-2.55c.12-1.26.31-1.91.31-2.14s0-.3-.19-.3-.27.19-.42.38c-.34.49-.84.61-1.75.69-.54,0-1.07,0-1.72,0l-4.87,0c-.23,0-.27-.11-.27-.34V91.49c0-.3.12-.42.35-.42l5.86.12a2.9,2.9,0,0,1,2.59,1.21,4.12,4.12,0,0,1,.34,1.45c0,.27.08.46.27.46s.27-.23.3-.42c.08-.46.15-2.13.19-2.51.12-1.07.31-1.53.31-1.79s-.08-.35-.23-.35-.3.16-.53.23a7.56,7.56,0,0,1-1.68.15c-.87,0-8.6,0-9.37,0-.19,0-2.58-.11-4.3-.11-.42,0-.61.07-.61.3s.16.23.31.23a6.73,6.73,0,0,1,1.29.12c1.26.26,1.56.87,1.64,2.17s.08,2.28.08,8.22v6.7"/><path class="cls-2" d="M327.83,66.59c0-3.79,0-4.47,0-5.25s.25-1.27.9-1.39a3.51,3.51,0,0,1,.61-.07c.1,0,.19-.05.19-.15s-.12-.19-.38-.19c-.73,0-2.26.07-2.39.07s-1.65-.07-2.45-.07c-.27,0-.39.05-.39.19s.1.15.2.15a2.87,2.87,0,0,1,.75.1c.53.12.78.53.83,1.36s0,1.46,0,5.25v4.27c0,2.34,0,4.26-.12,5.28-.09.7-.22,1.24-.7,1.33a3.66,3.66,0,0,1-.73.1c-.15,0-.2.07-.2.15s.13.19.39.19c.73,0,2.26-.07,2.38-.07s1.66.07,3,.07c.27,0,.39-.07.39-.19s-.05-.15-.19-.15a10.38,10.38,0,0,1-1.1-.1c-.72-.09-.87-.63-.94-1.33-.12-1-.12-2.94-.12-5.28V66.59Zm-22.05-.39c0-1.87,0-4.35,0-5.18a.43.43,0,0,1,.3-.48,6.28,6.28,0,0,1,1.57-.17c2.9,0,5.67.34,7.95,2.74A8.7,8.7,0,0,1,318,69.24,8.51,8.51,0,0,1,316,75a8.11,8.11,0,0,1-5.78,2.26c-2.87,0-3.82-.51-4.13-1a5.09,5.09,0,0,1-.27-1.85c0-.46-.05-2.69-.05-5.27v-3Zm-2,4.66c0,2.34,0,4.26-.12,5.28-.1.7-.22,1.24-.71,1.33a3.66,3.66,0,0,1-.73.1c-.14,0-.19.07-.19.15s.12.19.39.19c.73,0,2.26-.07,2.38-.07s3.3.29,5.39.29c4.13,0,6.32-1.7,7.37-2.8a9.92,9.92,0,0,0,2.62-6.85,8.65,8.65,0,0,0-2.36-6.17c-2.89-3-7.33-2.77-9.74-2.77-1.46,0-3,.07-3.28.07-.12,0-1.65-.07-2.75-.07-.27,0-.39.05-.39.19s.1.15.2.15a4.32,4.32,0,0,1,.82.07c.81.17,1,.56,1.05,1.39s.05,1.46.05,5.25v4.27Zm-21.58-.73c0,3.55.92,5.25,2.11,6.4a7.51,7.51,0,0,0,5,1.72,7.11,7.11,0,0,0,5-1.8c1.94-1.72,2.23-4.64,2.23-7.26v-2.6c0-3.79,0-4.47.05-5.25s.24-1.27.9-1.39a2.21,2.21,0,0,1,.61-.07c.09,0,.19-.05.19-.15s-.12-.19-.39-.19c-.73,0-1.87.07-2,.07s-1.48-.07-2.57-.07c-.27,0-.39.05-.39.19s.09.15.19.15a4.5,4.5,0,0,1,.83.07c.8.17,1,.56,1,1.39s.05,1.46.05,5.25v3c0,2.51-.29,4.57-1.41,6a5.11,5.11,0,0,1-3.81,1.75A4.74,4.74,0,0,1,286.1,76c-1.05-1-1.83-2.5-1.83-6v-3.4c0-3.79,0-4.47.05-5.25s.25-1.29.9-1.39a3.42,3.42,0,0,1,.61-.07c.1,0,.19-.05.19-.15s-.12-.19-.38-.19c-.73,0-2.19.07-2.41.07s-1.7-.07-2.8-.07c-.26,0-.38.05-.38.19s.09.15.19.15a4.5,4.5,0,0,1,.83.07c.8.17,1,.56,1,1.39s.05,1.46.05,5.25v3.54ZM272,60.58l3.07.05c2.33,0,2.89.61,3,1.34l0,.27c0,.34.07.41.19.41s.17-.1.17-.32.08-1.94.08-2.67c0-.14,0-.29-.13-.29a11.83,11.83,0,0,1-2.4.24h-9.11c-.29,0-1.22,0-1.92-.12a4.59,4.59,0,0,1-1.07-.29c-.1,0-.2.32-.24.46s-.54,2.29-.54,2.53.05.22.12.22.17,0,.24-.25a4.73,4.73,0,0,1,.42-.75c.39-.58,1-.75,2.48-.78l3.59-.05V70.86c0,2.34,0,4.26-.12,5.28-.1.7-.22,1.24-.7,1.33a3.66,3.66,0,0,1-.73.1c-.15,0-.2.07-.2.15s.12.19.39.19c.73,0,2.26-.07,2.38-.07s1.66.07,3,.07c.27,0,.39-.07.39-.19s-.05-.15-.19-.15a10.38,10.38,0,0,1-1.1-.1c-.73-.09-.87-.63-.94-1.33-.13-1-.13-2.94-.13-5.28V60.58ZM254.63,78.25a6.4,6.4,0,0,0,3.67-1,5,5,0,0,0,2.06-4c0-2-.68-3.45-3.54-5.71l-.69-.54c-2.28-1.87-3-2.7-3-4.08a2.76,2.76,0,0,1,3-2.82c2.23,0,2.89,1,3,1.29a4.31,4.31,0,0,1,.31,1.21c0,.2.05.32.2.32s.17-.17.17-.56c0-1.65.09-2.45.09-2.58s-.05-.17-.24-.17a3.78,3.78,0,0,1-.85-.12,9.75,9.75,0,0,0-2.26-.24c-3.09,0-5,1.77-5,4.37,0,1.66.58,3.16,3.16,5.28l1.09.9c2.09,1.72,2.8,2.69,2.8,4.37a3.25,3.25,0,0,1-3.48,3.23c-1.63,0-3.23-.68-3.59-2.48a3.91,3.91,0,0,1-.08-.9c0-.19,0-.26-.17-.26s-.17.12-.19.39-.12,1.36-.12,2.57c0,.66,0,.75.36.93a7.49,7.49,0,0,0,3.26.65ZM236.38,66.59c0-3.79,0-4.47.05-5.25s.24-1.27.9-1.39a3.33,3.33,0,0,1,.6-.07c.1,0,.2-.05.2-.15s-.12-.19-.39-.19c-.73,0-2.26.07-2.38.07s-1.66-.07-2.46-.07c-.26,0-.39.05-.39.19s.1.15.2.15a2.87,2.87,0,0,1,.75.1c.54.12.78.53.83,1.36s.05,1.46.05,5.25v4.27c0,2.34,0,4.26-.12,5.28-.1.7-.22,1.24-.71,1.33a3.66,3.66,0,0,1-.73.1c-.14,0-.19.07-.19.15s.12.19.39.19c.72,0,2.26-.07,2.38-.07s1.65.07,3,.07c.26,0,.39-.07.39-.19s-.05-.15-.2-.15a10.22,10.22,0,0,1-1.09-.1c-.73-.09-.88-.63-.95-1.33-.12-1-.12-2.94-.12-5.28V66.59Zm-14.39,0c0-3.79,0-4.47,0-5.25s.25-1.27,1-1.39a5.4,5.4,0,0,1,.8-.07c.1,0,.2-.05.2-.15s-.13-.19-.39-.19c-.73,0-2.51.07-2.63.07s-1.65-.07-2.74-.07c-.27,0-.39.05-.39.19s.09.15.19.15a4.5,4.5,0,0,1,.83.07c.8.17,1,.56,1,1.39s0,1.46,0,5.25v4.27c0,2.34,0,4.26-.12,5.28-.1.7-.22,1.24-.71,1.33a3.57,3.57,0,0,1-.72.1c-.15,0-.2.07-.2.15s.12.19.39.19c.73,0,2.16-.07,2.38-.07,1.41,0,3,.14,6.51.14,1.29,0,1.37-.09,1.54-.65a16,16,0,0,0,.36-2.43c0-.27,0-.37-.15-.37s-.19.13-.21.32a3.46,3.46,0,0,1-.64,1.46c-.58.7-1.65.73-2.94.73-1.89,0-2.52-.17-2.91-.56s-.54-2-.54-5.57V66.59Zm-11.44,9.26a.88.88,0,0,1-.49.85,6.68,6.68,0,0,1-2.77.51,8.87,8.87,0,0,1-6.37-2.6,9.93,9.93,0,0,1-2.57-6.73c0-2.85,1-5.06,2.4-6.18a7.81,7.81,0,0,1,5.2-1.6c3.14,0,5.11,1,5.71,2a3.75,3.75,0,0,1,.52,1.6c0,.22,0,.37.17.37s.21-.13.21-.51a31.29,31.29,0,0,1,.17-3.46c0-.09,0-.19-.29-.21a12.91,12.91,0,0,1-2-.25,21.47,21.47,0,0,0-3.71-.41,12,12,0,0,0-6.47,1.53,9.22,9.22,0,0,0-4.06,8,9.46,9.46,0,0,0,2.9,6.92,13.24,13.24,0,0,0,13.14,1.51c.29-.17.32-.22.32-1.31V73.12c0-1,0-1.75,0-2.52s.24-1.27.9-1.39a3.33,3.33,0,0,1,.6-.07c.1,0,.2,0,.2-.15s-.12-.19-.39-.19c-.73,0-2.26.07-2.38.07s-1.65-.07-2.75-.07c-.27,0-.39,0-.39.19s.1.15.2.15a4.32,4.32,0,0,1,.82.07c1,.27,1.1.54,1.1,2.5v4.14Zm-26.37-5c0,2.34,0,4.26-.12,5.28-.1.7-.22,1.24-.71,1.33a3.57,3.57,0,0,1-.72.1c-.15,0-.2.07-.2.15s.12.19.39.19c.73,0,2.26-.07,2.38-.07.71,0,2.33.14,6,.14,1,0,1.15,0,1.32-.63s.31-2.16.31-2.35,0-.37-.14-.37-.17.1-.22.37c-.17,1-.46,1.48-1.09,1.75A7.23,7.23,0,0,1,189,77c-2.38,0-2.74-.31-2.82-2,0-.51,0-3.33,0-4.16V68.73a.15.15,0,0,1,.17-.17c.42,0,2.82,0,3.48.12.95.09,1.16.51,1.26.85a2.4,2.4,0,0,1,.1.8c0,.12.05.22.17.22s.17-.27.17-.46.05-1.07.1-1.56c.07-.8.19-1.21.19-1.36s-.05-.19-.12-.19-.2.12-.36.31-.56.29-1.15.34-3.55.05-3.86.05c-.12,0-.15-.07-.15-.24V60.73c0-.17.05-.24.15-.24.27,0,2.92,0,3.33.07,1.31.15,1.55.44,1.72.83a2.64,2.64,0,0,1,.15.87c0,.2.05.32.19.32s.15-.15.17-.27c0-.29.1-1.36.12-1.6.08-.68.2-1,.2-1.15s0-.21-.1-.21-.22.09-.34.12a6.94,6.94,0,0,1-1,.12c-.56,0-5.4,0-5.57,0s-1.65-.07-2.74-.07c-.27,0-.39.05-.39.19s.09.15.19.15a4.5,4.5,0,0,1,.83.07c.8.17,1,.56,1,1.39s.05,1.46.05,5.25v4.27Zm-20-4.66c0-1.87,0-4.35,0-5.18,0-.27.07-.39.29-.48a6.43,6.43,0,0,1,1.58-.17c2.89,0,5.66.34,8,2.74a8.74,8.74,0,0,1,2.33,6.13,8.51,8.51,0,0,1-1.94,5.8,8.16,8.16,0,0,1-5.79,2.26c-2.86,0-3.81-.51-4.13-1a5.57,5.57,0,0,1-.27-1.85c0-.46,0-2.69,0-5.27v-3Zm-2,4.66c0,2.34,0,4.26-.13,5.28-.09.7-.21,1.24-.7,1.33a3.66,3.66,0,0,1-.73.1c-.15,0-.19.07-.19.15s.12.19.38.19c.73,0,2.26-.07,2.39-.07s3.3.29,5.39.29c4.13,0,6.32-1.7,7.36-2.8a9.93,9.93,0,0,0,2.63-6.85,8.65,8.65,0,0,0-2.36-6.17c-2.89-3-7.34-2.77-9.74-2.77-1.46,0-3,.07-3.28.07-.13,0-1.66-.07-2.75-.07-.27,0-.39.05-.39.19s.1.15.2.15A4.39,4.39,0,0,1,161,60c.8.17,1,.56,1.05,1.39s0,1.46,0,5.25v4.27Z"/><path class="cls-2" d="M318.1,40.26c-.07,0-.13,0-.07-.18l2.25-6.92q.2-.58.39,0l2.44,6.92c0,.11,0,.18-.11.18Zm-3.59,5.67c-.46,1.29-1,2.26-2.15,2.41a6.86,6.86,0,0,1-.75.06c-.12,0-.23.05-.23.15s.16.2.49.2c1.21,0,2.62-.07,2.9-.07s1.38.07,2,.07c.23,0,.38,0,.38-.2s-.07-.15-.25-.15h-.26c-.44,0-1-.24-1-.75a5.45,5.45,0,0,1,.36-1.72l1.54-4.54c.05-.12.12-.2.25-.2h5.52a.23.23,0,0,1,.23.15L326,47.65c.16.41,0,.64-.15.69s-.18.08-.18.18.28.16.77.18c1.77,0,3.64,0,4,0s.51,0,.51-.2-.1-.15-.26-.15a3.26,3.26,0,0,1-1-.16c-.54-.15-1.29-.56-2.21-2.85-1.56-3.89-5.59-14.49-6-15.46-.3-.8-.41-.93-.56-.93s-.26.16-.57,1l-5.82,15.93Zm7.85-18.54c.13,0,.23-.05.23-.13s-.23-.18-.49-.36A24.79,24.79,0,0,1,319.59,25c-.23-.23-.26-.41-.38-.41a1.22,1.22,0,0,0-.41.13c-.31.12-1,.33-1.54.48-.18.05-.29.08-.29.21s.21.23.75.43a47.44,47.44,0,0,0,4.64,1.52Zm-18,3.08,3.23.05c2.46.05,3.06.64,3.16,1.41l0,.28c0,.36.08.44.21.44s.18-.11.18-.34.07-2.05.07-2.82c0-.15,0-.31-.12-.31a12.36,12.36,0,0,1-2.54.26H299c-.31,0-1.28-.05-2-.13a4.75,4.75,0,0,1-1.13-.31c-.1,0-.2.34-.25.49S295,31.9,295,32.16s.05.23.13.23.18,0,.26-.26a3.87,3.87,0,0,1,.43-.79c.41-.62,1-.8,2.62-.82l3.8-.05V41.32c0,2.46,0,4.49-.13,5.56-.11.75-.23,1.31-.75,1.41a4.08,4.08,0,0,1-.77.11c-.15,0-.2.07-.2.15s.13.2.41.2c.77,0,2.38-.07,2.51-.07s1.75.07,3.16.07c.28,0,.41-.07.41-.2s-.05-.15-.21-.15-.79-.06-1.15-.11c-.77-.1-.92-.66-1-1.41-.13-1.07-.13-3.1-.13-5.56V30.47ZM289.79,36.8c0-4,0-4.72,0-5.54s.25-1.33,1-1.46a3.91,3.91,0,0,1,.64-.08c.1,0,.2,0,.2-.15s-.13-.21-.41-.21c-.77,0-2.38.08-2.51.08s-1.75-.08-2.59-.08c-.28,0-.41.05-.41.21s.1.15.2.15a3.77,3.77,0,0,1,.8.1c.56.13.82.57.87,1.44s.05,1.54.05,5.54v4.52c0,2.46,0,4.49-.13,5.56-.1.75-.23,1.31-.74,1.41a4.08,4.08,0,0,1-.77.11c-.15,0-.21.07-.21.15s.13.2.41.2c.77,0,2.39-.07,2.52-.07s1.74.07,3.15.07c.29,0,.41-.07.41-.2s0-.15-.2-.15-.8-.06-1.16-.11c-.77-.1-.92-.66-1-1.41-.12-1.07-.12-3.1-.12-5.56V36.8Zm-15,12.31A6.73,6.73,0,0,0,278.68,48a5.32,5.32,0,0,0,2.18-4.26c0-2.05-.72-3.64-3.75-6l-.71-.56c-2.42-2-3.13-2.85-3.13-4.31a2.91,2.91,0,0,1,3.15-3c2.36,0,3.05,1.08,3.21,1.36a4.47,4.47,0,0,1,.33,1.28c0,.21.05.34.21.34s.18-.18.18-.59c0-1.75.1-2.59.1-2.72s-.05-.18-.26-.18a4.51,4.51,0,0,1-.9-.13,10.07,10.07,0,0,0-2.38-.26c-3.26,0-5.31,1.88-5.31,4.62,0,1.75.62,3.34,3.33,5.57l1.16,1c2.2,1.82,3,2.84,3,4.61a3.42,3.42,0,0,1-3.67,3.41c-1.72,0-3.41-.71-3.79-2.61a4.37,4.37,0,0,1-.08-.95c0-.21,0-.28-.18-.28s-.18.13-.21.41-.13,1.43-.13,2.72c0,.69,0,.79.39,1a7.82,7.82,0,0,0,3.44.69ZM256,30.65a.31.31,0,0,1,.21-.31,7.43,7.43,0,0,1,1.72-.16c2.74,0,4.43,1.93,4.43,5.13,0,1.95-.66,3.34-1.56,3.95a3.33,3.33,0,0,1-1.92.49,7.14,7.14,0,0,1-2.7-.41A.34.34,0,0,1,256,39V30.65Zm-2.05,10.67c0,2.46,0,4.49-.13,5.56-.1.75-.23,1.31-.74,1.41a4.08,4.08,0,0,1-.77.11c-.16,0-.21.07-.21.15s.13.2.41.2c.77,0,2.39-.07,2.41-.07s1.75.07,3.16.07c.28,0,.41-.07.41-.2s0-.15-.2-.15-.8-.06-1.16-.11c-.77-.1-.92-.66-1-1.41-.13-1.07-.13-3.1-.13-5.56V40.7c0-.13,0-.2.18-.2l3.16,0a.41.41,0,0,1,.33.15c.51.67,1.72,2.39,2.8,3.8,1.46,1.92,2.36,3.18,3.46,3.77a5.23,5.23,0,0,0,2.74.48h1.83c.46,0,.61,0,.61-.2s-.1-.15-.23-.15a6,6,0,0,1-1-.08,5.3,5.3,0,0,1-3.13-1.85c-1.49-1.59-3.23-3.87-5.34-6.56,2.31-2.13,3.11-4,3.11-5.93a4.49,4.49,0,0,0-1.77-3.49,8,8,0,0,0-4.7-1.13c-.79,0-2.74.08-3,.08-.13,0-1.75-.08-2.9-.08-.28,0-.41.05-.41.21s.1.15.2.15a5.05,5.05,0,0,1,.88.08c.84.18,1,.59,1.1,1.46s0,1.54,0,5.54v4.52Zm-15.65,0c0,2.46,0,4.49-.12,5.56-.11.75-.24,1.31-.75,1.41a4.08,4.08,0,0,1-.77.11c-.15,0-.2.07-.2.15s.13.2.41.2c.77,0,2.38-.07,2.51-.07.75,0,2.46.15,6.34.15,1,0,1.2,0,1.38-.67a24.62,24.62,0,0,0,.34-2.48c0-.18,0-.39-.16-.39s-.18.1-.23.39c-.18,1-.49,1.56-1.15,1.84a7.21,7.21,0,0,1-2.47.29c-2.51,0-2.89-.34-3-2.11,0-.54,0-3.51,0-4.38V39.06a.16.16,0,0,1,.18-.18c.43,0,3,0,3.67.13,1,.1,1.23.54,1.33.9a2.65,2.65,0,0,1,.1.84c0,.13,0,.23.18.23s.18-.28.18-.48.05-1.13.1-1.65c.08-.84.21-1.28.21-1.43s0-.21-.13-.21-.2.13-.38.34-.59.3-1.21.35-3.74.06-4.08.06c-.13,0-.15-.08-.15-.26V30.62c0-.18,0-.26.15-.26.28,0,3.08,0,3.52.08,1.38.15,1.64.46,1.82.87a2.73,2.73,0,0,1,.15.93c0,.2.05.33.21.33s.15-.15.18-.28c0-.31.1-1.44.12-1.7.08-.71.21-1,.21-1.2s0-.23-.1-.23-.23.1-.36.13a6.69,6.69,0,0,1-1.1.12c-.59,0-5.7,0-5.88,0s-1.74-.08-2.9-.08c-.28,0-.41.05-.41.21s.1.15.21.15a4.94,4.94,0,0,1,.87.08c.85.18,1,.59,1.1,1.46s.05,1.54.05,5.54v4.52Zm-18.39-8.83a9.94,9.94,0,0,1-.69-2.13.51.51,0,0,1,.33-.51,3.1,3.1,0,0,1,1-.13c.18,0,.26,0,.26-.18s-.24-.18-.7-.18c-1,0-2.13.08-2.38.08s-1.77-.08-3-.08c-.41,0-.67,0-.67.18s.05.18.2.18a4.12,4.12,0,0,1,1,.1c.9.26,1.28.54,1.85,2l6.28,15.72c.49,1.23.62,1.59.92,1.59s.36-.41,1.08-2c.59-1.25,1.74-4,3.31-7.77,1.31-3.15,2.59-6.23,2.87-7,.7-1.74,1.08-2.18,1.41-2.41a2.31,2.31,0,0,1,1.23-.31c.21,0,.31,0,.31-.18s-.15-.18-.43-.18c-.75,0-1.85.08-2,.08-.31,0-1.49-.08-2.52-.08-.41,0-.56.05-.56.21s.13.15.28.15a3.27,3.27,0,0,1,1,.1.64.64,0,0,1,.34.59,3.62,3.62,0,0,1-.23,1c-.57,1.85-4,10.8-5.49,14.24l-4.93-13.14Zm-9.77,4.31c0-4,0-4.72,0-5.54s.26-1.33,1-1.46a4,4,0,0,1,.64-.08c.1,0,.21,0,.21-.15s-.13-.21-.41-.21c-.77,0-2.39.08-2.52.08s-1.74-.08-2.59-.08c-.28,0-.41.05-.41.21s.1.15.21.15a3.69,3.69,0,0,1,.79.1c.57.13.82.57.87,1.44s.06,1.54.06,5.54v4.52c0,2.46,0,4.49-.13,5.56-.11.75-.23,1.31-.75,1.41a4.1,4.1,0,0,1-.76.11c-.16,0-.21.07-.21.15s.13.2.41.2c.77,0,2.39-.07,2.51-.07s1.75.07,3.16.07c.28,0,.41-.07.41-.2s0-.15-.21-.15-.79-.06-1.15-.11c-.77-.1-.92-.66-1-1.41-.13-1.07-.13-3.1-.13-5.56V36.8ZM184,33c.83.92,3.72,4.16,6.7,7.36,2.72,2.93,6.41,6.7,6.69,6.95,1.36,1.36,1.67,1.64,1.88,1.64s.23-.12.23-1.82l0-15c0-1.54.1-2.1,1-2.28a2.15,2.15,0,0,1,.61-.08c.18,0,.29-.08.29-.18s-.18-.18-.47-.18c-1,0-1.89.08-2.18.08s-1.51-.08-2.66-.08c-.31,0-.52,0-.52.18s0,.18.21.18a7.08,7.08,0,0,1,1.25.13c.8.21,1,.77,1,2.44l.28,13c-.82-.85-3.62-4-6.16-6.7-4-4.23-7.77-8.36-8.16-8.8-.25-.25-.69-.82-.89-.82s-.29.29-.29,1.29l0,14.69c0,2.34-.13,3.08-.77,3.26a3.7,3.7,0,0,1-1.05.16c-.13,0-.21.05-.21.15s.16.2.41.2c1.16,0,2.23-.07,2.47-.07s1.25.07,2.71.07c.31,0,.47,0,.47-.2s-.08-.15-.21-.15a5.61,5.61,0,0,1-1.28-.16c-.69-.2-1-.87-1-3L184,33Zm-23.13,7.57c0,3.74,1,5.54,2.23,6.74a7.86,7.86,0,0,0,5.28,1.82,7.52,7.52,0,0,0,5.29-1.89c2.05-1.83,2.36-4.9,2.36-7.67V36.8c0-4,0-4.72,0-5.54s.26-1.33,1-1.46a2.15,2.15,0,0,1,.64-.08c.1,0,.2,0,.2-.15s-.12-.21-.41-.21c-.77,0-2,.08-2.15.08s-1.57-.08-2.72-.08c-.28,0-.41.05-.41.21s.1.15.21.15a4.94,4.94,0,0,1,.87.08c.84.18,1.05.59,1.1,1.46s.05,1.54.05,5.54V40c0,2.64-.31,4.82-1.49,6.28a5.35,5.35,0,0,1-4,1.85A5,5,0,0,1,165,46.73c-1.1-1-1.92-2.64-1.92-6.34V36.8c0-4,0-4.72,0-5.54s.26-1.36,1-1.46a4,4,0,0,1,.64-.08c.1,0,.21,0,.21-.15s-.13-.21-.41-.21c-.77,0-2.31.08-2.54.08s-1.8-.08-3-.08c-.28,0-.41.05-.41.21s.1.15.2.15a4.85,4.85,0,0,1,.87.08c.85.18,1.06.59,1.11,1.46s0,1.54,0,5.54v3.75Z"/><path class="cls-3" d="M51.94,7.82a15.44,15.44,0,0,1,5.82-2.27,21.85,21.85,0,0,1,9.86.3,30.88,30.88,0,0,1,6.61,2.76,2.06,2.06,0,0,1,.88,1.48L72.75,15s-1.19,1.87-1.09,2.17.4,1.87.4,1.87a16.34,16.34,0,0,1,.69,2.47,57.6,57.6,0,0,1-2.27,8.38c-.69,1.38-.69,3.55-.1,4.34s3.16,1.88,4.83,2.47S84.48,41,85.47,42.14s8,12,8.48,16.87.79,2.86.79,2.86l.49,2.76s1.19,2,1.68,2.76.49,6.81.49,6.81l2.67,6.8,2.26,4.14s1.39,2.76,1.29,3.45a19,19,0,0,1-1.68,3.26,22.33,22.33,0,0,1,.39,3.55,9.19,9.19,0,0,1-2.07,4,12.37,12.37,0,0,0-1.87,2.08s.2,2.76.2,3.35-.5,4.44-2.27,6.11c-.39.37-.4,2.47-.4,2.47s-5.12,5.13-10.15,7.49-10.85,4.84-16.87,5.23-15.19.1-21-2.37S36.85,119,33,115.42s-1.77-1.77-1.77-1.77l-.69-9.77-.69-9a9.87,9.87,0,0,1-3.56-3.55c-1.08-2.17-.19-4.34.6-6.22s.88-5.22,1-6.21-.49-5.33.1-9.37,1.28-10,3.16-14S35.27,47,37,45.4a37.32,37.32,0,0,1,4.34-3.16S40,40.76,40,39.77a9.13,9.13,0,0,1,.79-3.55A13.78,13.78,0,0,0,41.88,34s2.36,1.08,3,1.38a7.12,7.12,0,0,1,2,1.38c.69.69,1.08,1.18,1.28,1.18s3.06-2.37,3.06-2.37L54,33.86V28.73l-.89-6L53.81,18l-.49-4.74L51.94,7.82Z"/><path class="cls-2" d="M57.37,32.79c-.06.84.35,1.24,1.22,1.18.12-.35.36-.59.48-.94-.56-.23-.78,0-1.7-.24ZM60,29.84c-.74-.55-2.52-.08-3.66-.24l.1.47c1.91-.15.33,1.49,1.85,1.43-.55-1.15.89-.76,1.71-1.66Zm3.17-8c0,.24,0,.6-.1.61h-.55c-.66,0-1.58,0-1.83,0a.2.2,0,0,0,0-.11c0-.12-.07-.29-.11-.43a.67.67,0,0,1,0-.17l.11-.07c.2-.11.6-.33.63-.33a7.3,7.3,0,0,1,1.88.35v.18Zm-3.11-1.92-.24.19c0-.92,2.11-1.07,2-.89-.14.35-1.39.48-1.81.7Zm1.93.34a7.66,7.66,0,0,1,3.44,0c-1-1.6-4-2.18-5.7-1.1-.45.28-.6,1-.89,1.56.62.35,1.32.15,1.7.37-.15.05-.62.53-.76.59A7,7,0,0,0,60.44,24a2.45,2.45,0,0,0,3,.87l-3-1.6c1.62-.81,3.36.63,4.34-1.42C64.49,21,62.37,21,62,20.23Zm1.18,1.58c0,.24,0,.6-.1.61h-.55c-.66,0-1.58,0-1.83,0a.2.2,0,0,0,0-.11c0-.12-.07-.29-.11-.43a.67.67,0,0,1,0-.17l.11-.07c.2-.11.6-.33.63-.33a7.3,7.3,0,0,1,1.88.35v.18Zm-3.11-1.92-.24.19c0-.92,2.11-1.07,2-.89-.14.35-1.39.48-1.81.7Zm1.93.34a7.66,7.66,0,0,1,3.44,0c-1-1.6-4-2.18-5.7-1.1-.45.28-.6,1-.89,1.56.62.35,1.32.15,1.7.37-.15.05-.62.53-.76.59A7,7,0,0,0,60.44,24a2.45,2.45,0,0,0,3,.87l-3-1.6c1.62-.81,3.36.63,4.34-1.42C64.49,21,62.37,21,62,20.23Zm-2,9.61c-.74-.55-2.52-.08-3.66-.24l.1.47c1.91-.15.33,1.49,1.85,1.43-.55-1.15.89-.76,1.71-1.66Zm-2.63,2.95c-.06.84.35,1.24,1.22,1.18.12-.35.36-.59.48-.94-.56-.23-.78,0-1.7-.24ZM95.64,113.2a2.85,2.85,0,0,0,.35-.34l-.35.34Zm-10.42,7.42c0,.13,0,.26,0,.39a2.3,2.3,0,0,1,.29-.57c-.11.07-.22.12-.33.18ZM82.46,122s0,.06,0,.09l.6.09c.06-.18.14-.37.21-.55-.27.13-.54.26-.82.37ZM79.88,123v0l.87-.31v-.06l-.87.33ZM76,124.26v.4h.68v-.61c-.22.08-.45.14-.68.2Zm-6.41,1.31c0,.13,0,.26,0,.39.22,0,.56-.1.79-.08,0-.17,0-.3.06-.43l-.87.12Zm-3.6.33v.5c.22,0,.51-.13.73-.1a4.66,4.66,0,0,1,.13-.45l-.86.05ZM63.17,21.81c0,.24,0,.6-.1.61h-.55c-.66,0-1.58,0-1.83,0a.2.2,0,0,0,0-.11c0-.12-.07-.29-.11-.43a.67.67,0,0,1,0-.17l.11-.07c.2-.11.6-.33.63-.33a7.3,7.3,0,0,1,1.88.35v.18Zm-3.11-1.92-.24.19c0-.92,2.11-1.07,2-.89-.14.35-1.39.48-1.81.7Zm1.93.34a7.66,7.66,0,0,1,3.44,0c-1-1.6-4-2.18-5.7-1.1-.45.28-.6,1-.89,1.56.62.35,1.32.15,1.7.37-.15.05-.62.53-.76.59A7,7,0,0,0,60.44,24a2.45,2.45,0,0,0,3,.87l-3-1.6c1.62-.81,3.36.63,4.34-1.42C64.49,21,62.37,21,62,20.23ZM63.5,126h-.4c0,.15,0,.3,0,.44.16.06,1.19.07,1.23-.26a1.1,1.1,0,0,0,0-.18Zm-2.89-.09a1.53,1.53,0,0,1-.33.42l1.78,0c0-.13,0-.25,0-.38q-.73,0-1.47-.06Zm-1.71-.14c0,.17-.1.33-.16.5s.5,0,.56,0a2.63,2.63,0,0,0,.21-.44c-.21,0-.41,0-.61-.06ZM60,29.84c-.74-.55-2.52-.08-3.66-.24l.1.47c1.91-.15.33,1.49,1.85,1.43-.55-1.15.89-.76,1.71-1.66Zm-2.63,2.95c-.06.84.35,1.24,1.22,1.18.12-.35.36-.59.48-.94-.56-.23-.78,0-1.7-.24Zm-2.5,92.38-.22,0a2,2,0,0,0,.42.52c-.07-.16-.14-.32-.2-.48Zm-2-.42v.38a.64.64,0,0,0,.2-.34l-.2,0Zm-2.15-.56-.06.43.51.16a4.09,4.09,0,0,0,.16-.42l-.61-.17Zm-12.78-5.83,0,.06a5.67,5.67,0,0,0,2.77,2c.33,0,.64.1.94.13-1.29-.67-2.53-1.41-3.74-2.2Zm-5.87-4a1.62,1.62,0,0,1-.45-.87q-.34-.31-.69-.66c.07.48.28.79,1.36,2,0,0,.86.52-.22-.51Z"/><path class="cls-2" d="M102,90.78c-.49-.83-.92-1.49-1.28-2.19s-.65-1.41-1-2.16c1.64-1.08.3-2.33.18-3.54l0,0a.35.35,0,0,0,0-.08c-1.26-.71-2.49-1.5-3.8-2.11s-2.67-1-4-1.52l.09-.61,4,.39c-1-2.91-3.61-2.78-6.09-3.34a5.81,5.81,0,0,1,2-1c-.7-2.26-.85-2.26-6.36-.23-.09-3.35-3.6-2.68-5.17-4.61,2-1.53,2.54-4.72,5.93-5.3-.19.86-.33,1.53-.54,2.53l4.69-1.28c.07.15.15.29.22.43l-6.5,4.39.3.75a7.28,7.28,0,0,0,2.18-.42,3.94,3.94,0,0,1,4.89.51c1.49,1.24,3.27,2.17,4.63,3.53a21.16,21.16,0,0,1,2.51,3.88l-.54.3a21.29,21.29,0,0,0-1.36-2.8c-.26-.41-.93-.54-1.42-.79a3.82,3.82,0,0,0,.23,1.44c1,1.52,2.16,3,3.23,4.46.33.46.61,1,.9,1.43l.09,0v.06c3,2.53,3.56,4.57,2.09,7.89Zm-5,3.43V90.69h.55c1,1.22,0,2.36-.55,3.51Zm1.75,6.53a7.05,7.05,0,0,1-.24-7.27,7.07,7.07,0,0,0,.69-2.39c.25-1.73-.52-2.88-2.43-3.52a15.58,15.58,0,0,0-.38,7.84c.49,3.19,1.15,6.35,1.53,9.54A6.65,6.65,0,0,1,96,110.58c-1.26-9-1.42-18-6.93-25.7l1.33.39c.48.15.95.32,1.43.44,1.37.32,1.83-.29,1.69-1.6a3.37,3.37,0,0,0-3.33-2.93c-1-.09-5.32-.22-6.4-.22,2.11-1.94,6.62-3.57,15.76,3.13-.55,0-1.72-.26-2.35-.26,1.15,1.7.84,2.11,1.84,3.69a22.2,22.2,0,0,1,1.63,3.09c1.78,4,1.22,6.82-2,10.13ZM87.19,83.4a27.42,27.42,0,0,0-7.06,1.22c2-4.62,14.63-3.05,11.59.17a13.17,13.17,0,0,0-4.53-1.39ZM84.64,79h.06a3.07,3.07,0,0,0,1-.65c1.81-2.41,4.19-1.42,6.42-1.34,0,.18.08.35.11.53L84.7,79l0,0s0,0,0,0c-.71.56-1.41,1.13-2.32,1.87C83,77.52,88.1,73.26,90.56,74c-1.27.76-2.42,1.37-3.47,2.11s-2,1.58-3,2.38l.5.49Zm-7.09,8.57c-.46,1-1,1.06-2,.86a9.75,9.75,0,0,0-7.82,1.31,14.74,14.74,0,0,0-1.37,1.19c1.27,1.92,3.3.21,4.88,1.39a24.76,24.76,0,0,1-1.48,3.35,1.78,1.78,0,0,1-1.6.58c-3.58-1.6-7.11-3.31-10.77-5L70.76,66.37l13.83,6.69c-1,2.26-2,4.37-3,6.44-1.32,2.69-2.76,5.33-4,8Zm2.74,3.25-.71-1.67c1.71-.38,2.44.13,2.54,1.68.14,2-.05,3.86-1.69,5.43a35.21,35.21,0,0,0-3,4,1.11,1.11,0,0,1-1.59.45c-.66-.28-1.69.28-2.55.44s-1.86.31-2.79.47l-.12-.61,3.85-.84-.06-.37c-1,.16-2.07.28-3.09.51a19.78,19.78,0,0,1-3.08.63c1.07-1.5,2.64-1.74,4.22-1.95,1.25-.16,1.49-.69.87-2.32-.15,1.81-1.26,1.81-2.44,1.93a15.52,15.52,0,0,0-2.35.8c-1,.26-2,.43-3,.65-.11-.89-.18-1.43-.3-2.34.73.5,1.17.82,1.38,1,3.82-.85,5.27-3.64,6.14-7l-1.38-.22c0-.55,0-1-.08-1.5l-2.71,1.45c1.32-2.92,4.28-3,12-.53Zm4.18,3.26c0,3.84-.2,7.68-.21,11.52,0,2,.22,4,.11,6.06a22.9,22.9,0,0,1-1.11-4.44c-.21-3.83-.18-7.66-.2-11.5,0-1.28.24-2.57.13-3.83a25.29,25.29,0,0,0-.82-3.52c1.84,1.37,2.09,3.55,2.1,5.71Zm2.31-1c-.1,3.76-.49,7.52-.77,11.27A15.3,15.3,0,0,1,85.6,107c-1.43-6,1-12.38-1.36-18.41a4.51,4.51,0,0,1,2.54,4.48Zm-6.13,27.21c-.38-2.84-.64-5.7-1.17-8.51a38.29,38.29,0,0,0-2-7.37c-.79-1.9,1.86-6.08,3.57-7.36,1.7,6.74-.18,16.44-.44,23.24Zm-24.57-28c.07-.19.14-.39.22-.59L67.23,97c-1.23.7-7.15-1.81-11.15-4.69Zm4.39,8a12.07,12.07,0,0,0-2.26-1,4,4,0,0,0-4.81,2.47,7.22,7.22,0,0,1-3.57,3.78,9.66,9.66,0,0,0-3.78,4,77.72,77.72,0,0,0-3.28,8.14c2.4,1.1,4.69-.58,5-3.9l-.87,1-2.51,2.88c.18-5.08,3.24-10.28,7-11.41l-1.62,2.61-.52-.21.25,1.43-3.59,3.75,1,1,1.65-3.24.54.54c.49,3.11-2.08,6.6-5.12,6.63a2.58,2.58,0,0,1-1.89-1.6,33.5,33.5,0,0,1-.62-5.76,2.24,2.24,0,0,0-1.1-2.17,5,5,0,0,1-1.79-2.12c-.77-1.63-1.33-3.37-2-5.07l.35-.4A14.16,14.16,0,0,1,39,103.31a29.8,29.8,0,0,1,1.79,2.81c1.63,2.5,3.27,2.92,5.49,1a89.45,89.45,0,0,0,7.42-7.41,6.29,6.29,0,0,1,5.68-2,6.11,6.11,0,0,1,2,1l-.93,1.62Zm-2.41,2.55a28.55,28.55,0,0,1-2,3.88l-.65-.38,1.7-2.75c-1.55,0-2.56,0-3,1.67-.31,1.14.26,3.2-2.58,2.92,1.21-2.48,2.24-4.88,3.58-7.09.31-.52,1.67-.41,2.55-.58.16.78.62,1.68.4,2.33ZM46.18,120c-5.65.74-7.07.06-9.09-5.27-1.21-3.2-3.47-10.88-4.51-14.14.14,0-.57-2.39-.43-2.43.9,2.25,4,11.22,5,13.44.76,1.68,1.37,3.55,3.42,4.27.22.07.35.52.45.81.86,2.65,2.55,3.49,5.14,2.37a26.31,26.31,0,0,0,3.14-1.88A3.43,3.43,0,0,1,46.18,120ZM36.3,104.69c1.19,1.83,2.12,4.31,3.88,5.28.55.3.4,1.28.47,1.94s0,1.41,0,2.58c-3.8-4.14-5.62-10.86-7.29-15.5.14-.06,1.42.93,1.56.87.65,1.33.56,3.6,1.37,4.83Zm13.78-2.22c-1.91,1.56-3.76,3.17-5.76,4.61-.3.22-1.39-.23-1.81-.67A34.56,34.56,0,0,1,39.88,103c2.1.33,3.31,2.4,5.32,1.3,1.49-.81,3-1.59,4.5-2.38l.38.52ZM39.56,96.7c-3.21.19-8-3.45-8.78-6.65,2.24.09,6.82,4,8.78,6.65ZM33.48,58.4c1.4,3.05.49,5.57-.66,8.06-.15-2.58-.95-5.2.66-8.06Zm-6.9,32.05a2.89,2.89,0,0,1-.42-2.23c2.12-7.38,4.26-14.75,8-21.52a10.24,10.24,0,0,0,1.11-7c-.15-.8-1-1.48-1.49-2.22-.61.66-1.59,1.23-1.76,2a21.37,21.37,0,0,0-.38,4.8c0,4.49-1.84,8.49-3.2,13.12-1-12.8,3.29-27.61,11.8-34.09.57-.43,1.52-1.07,2.12-1.42.52,2.05,1.35,3,.57,4.93-1.52,3.82-3.5,8.36-4.76,12.27-2.63,8.2-5,16.48-7.5,24.73a2.39,2.39,0,0,0,0,.62l1.21-.3c1.47,5.69,4.83,8.21,9,6.44L38.41,87.4l-.48.31,1.49,2.61A6.23,6.23,0,0,1,33,83.17c.17-1.31,1-1.89,1.57-3.37-.64.2-2,2.72-2.91,3,1.92-6.85,10-23.08,13.47-31,.21.07.5,1.76.7,1.83-.12.59-.46,2-.61,2.59-2.27,5.29-4.28,12.11-7.57,17a6.3,6.3,0,0,0-.2,7.23,6.59,6.59,0,0,1,.9,2.52l-1-.83c-2.39,2.07-2.54,4.82-.46,6.19-.14-1.52-.28-3.1-.42-4.68l.75-.28a30.51,30.51,0,0,1,2,2.66c2.26,3.73,3.86,4.57,8.13,3.47a79.34,79.34,0,0,0,7.8-2.87c.81-.31,1.6-.65,2.4-1,.09.17.17.35.25.52a27.77,27.77,0,0,1-4.06,2c-4,1.22-8.14,2.25-12.22,3.36-.74.2-1.47.45-2.33.71-.6.79-.6.79,1.66.45,3.6-1.12,7.59-2,11.15-3.23.72-.24,5.87-2.76,6.75-2.71L57.23,90s-1.87.69-3.83,1.3c-2.09.79-5.54,3.63-7,5.12-1.08,1.08-4.45,1.39-5.46.23A38.68,38.68,0,0,0,30.39,88c-.71-.38-1.46-.71-2.27-1.11,1,6.75,7,10.76,16.83,11.3-.5,1.31-1.12,2.22-2.77,1.12l-.3.4,1.52,2.77c3.09-5,6.28-9.24,11.42-11.29l1.6,2.92c-3.24,1.49-7.48,1.82-10.3,5.63.75-.22,1.22-.21,1.41-.43,1.86-2.19,4.52-2.71,7.06-3.52a6.74,6.74,0,0,0,1.41-.5c1.87-1.15,3.47-.5,5.24.84-1.29.2-2.39.34-3.47.55A24.73,24.73,0,0,0,47.26,102a4.77,4.77,0,0,1-6.1.49c-5.6-3.13-10.71-6.81-14.58-12ZM40.63,38.13c.2-.61.36-.65.58-.73a6.61,6.61,0,0,0,2.24,2.3,1.93,1.93,0,0,1-2.13,1c-1.22-.28-.9-1.72-.69-2.58Zm1.77-3.22c2.84.27,2.24,1.86,1.43,3.93-1.31-1-3.55-1.7-1.43-3.93Zm2,16.59c-.82,1.88-1.9,3.66-2.7,5.54-2.07,4.86-4,9.76-6.07,14.65-.34.81-.69,1.62-1,2.44l-.46-.21c3.15-8.77,6.31-17.54,9.53-26.49a3.52,3.52,0,0,1,.73,4.07Zm1.25-9.33c1,3.4,2,6.81,3.06,10.2.38,1.21.92,2.38,1.29,3.6a2.34,2.34,0,0,1-.71,2.94,68.59,68.59,0,0,1-5.5-17.64c1.14-.59,1.59,0,1.86.9Zm-.45-5c.16,0-.08-1.16.09-1.22.47.64,2.7,1.48,2,2.84a2.8,2.8,0,0,1-1.31.79,1.75,1.75,0,0,1-1.22-.43c.17-.7.26-1.34.41-2Zm5-.93c.3.16,1.48-.61,1.78-.45-1,2.72-2.78,8.77-3.74,11.5-.14,0-.31-2.4-.44-2.4-.5-1.45-1-2.91-1.43-4.11,1.88-1.11,2.61-3.09,3.83-4.54ZM54,38.67c-2.28,4.09-3,8.53-3.35,13.1a6.06,6.06,0,0,1-.45,1.2c-.47-2-1.36-3.37-.7-5.24.95-2.77,1.5-5.68,2.3-8.5.42-1.48,1-2.91,1.6-4.56a3.24,3.24,0,0,1,.6,4ZM53.48,21l.18-1,2.09.48a10.58,10.58,0,0,1-1.35,0,1,1,0,0,0-.92.48Zm-1-12.94,1.76.51a3.24,3.24,0,0,0,.3,3.11c.3.27-.69.39-.74.39a11.51,11.51,0,0,1-1.32-4Zm2.61-1.78a23.23,23.23,0,0,1,15.66.82l.38.16.13.06v0l.82.44s1.32.66,2,1.08a1.86,1.86,0,0,1,.54.42l-1.57.33a6.84,6.84,0,0,0-.77-1.11,9.62,9.62,0,0,0-1.06-.88c-.07.45-.2,1.24-.55,1.45a16.72,16.72,0,0,0-1-1.75c-.23.36-1,1.29-1.31,1.66-1.33-2.09-1.27-2.26-3.14-.56-.32-.71-.59-1.87-.93-2.59-.5.48-.92,1.59-1.46,2.11-.3-.42-.75-1.57-1.37-2.42l-2.1,3.18c-.34-.76-1-1.69-1.32-2.42-.07-.15-.87,1.13-1.26,2.14-.14.35-1.66-2-1.72-2.14a9.06,9.06,0,0,1-.53,1.51c-.28-.11-.92-.34-1.38-.49.62-.33,1.34-.74,1.91-1Zm17.71,7.09-.9-.36s1.39-1.59,1.26-2.62l1.49-.52a35.08,35.08,0,0,1-1.85,3.5ZM70.65,25.55c-1,.15-.7-.9-.73-1.66,1.65.25,1.77-2.14,2.2-3.08,1,1.21-1.4,3-1.47,4.74Zm1.72,10.53c.16,0,.31,1.9.61,2.5-2.78.46-5.75.62-8.7,1.1,2.44-1.51,3.87-3.48,5.4-5.13.44,1.18.55,1.77,2.69,1.53Zm1.68.82c.24,1,.93,2.38,1.21,3.58-4.09.91-12.28,1.67-13.24.24,3.66-.44,8-.84,11.77-1.29-.08-1.19-.12-1.82-.16-2.45l.42-.08Zm-5.59,14c.17,0,.51,2,.67,2,.23,3.62.62,7.24.85,10.86l.47.18a12.55,12.55,0,0,0,.86-2.5c.48-4.09.64-11.33,1.06-15.49,3.06,3.13,2.39,16.53,1.58,20.71a13.5,13.5,0,0,0-2.87-1.26c-.94-.18-1.66.14-2.88,1.71-1.13-4.7-.49-12,.26-16.2ZM63,73.38C63.3,68.5,64.61,61,64.72,57.1c.07-2.73.43-5.3.39-8a11.41,11.41,0,0,0-.45-3c-.12-.4-.67-.67-1-1-.27.47-.73.92-.78,1.41-.23,2.46-.34,4.92-.5,7.39S61.65,63.7,61,65.67c-.47-4.41.67-19.4,1.95-23.52h5.35q.48,2.46,1,5h.5V41.73c1.92,1.36,2.21,12.07.73,16.09-.27-1.85-.45-3.35-.7-4.83a26.46,26.46,0,0,0-1-4.31c-1.58,2-1.74,4.33-2,6.61a28.6,28.6,0,0,0,1,12.52c-.07.53-3.49,6.61-3.75,7.57,0-1.12-1.07-.7-1-2ZM58.8,66.2c.16,1.73,1.66,9.63,1.82,11.36-.22,0-1.17.81-1.39.83-.12-1.74-.22-2.53-.35-4.27.19,0-.27-7.92-.08-7.92Zm-4-26.91c2,.83,2,2.32,2,5a17.13,17.13,0,0,0,.24,2l.42,0c.1-1.25,0-2.89.13-4.27,1.1,0,2.31-.4,3.31-.4C60,45,58.11,49,59.73,52.6c.12-.81.25-1.62.35-2.43s.1-1.67.25-2.49a7.51,7.51,0,0,1,.88-2.46c-.31,7.55-1.72,15.05-.42,22.58l.5.11a27.83,27.83,0,0,0,.78-3.55c.4-4,.69-8.1,1-12.15A25.32,25.32,0,0,1,64,47.69c.42,9-.87,20.43-2.66,29.19-1-8-2.8-14.25-4-21.44-.55-3.43-1.52-6.79-1.68-10.27-2.46,1.6-.63,7.52-1.28,9.27-.57-1.38-3-4.57-2.09-8,.67-2.38,1.15-5.29,2.4-7.18ZM54.1,27.6c-.14-.93,0-2.29-.13-3.19l-.17-1.19c4.12-1.2,1.66,3.09.3,4.38ZM56,21.33c.12.45,0,.82-.38.82H54.23c0-.11-.27-.72-.25-.82.44-.09,1.85-.47,2,0Zm-1.85-2a4.35,4.35,0,0,1,2,.46c-.4.34-2.3-.3-2-.46ZM54.54,16A57.18,57.18,0,0,1,67,16.7c.4,0,1,.93,1,1.47.55,4.62-1.32,8.56-3.46,12.24l-5.14-6.08-.31.14c.07.31.15.62.25,1L56.8,26c.13-1.57.36-3.1.36-4.63,0-1.83-.56-2.28-3.06-2.73.12-.72.25-1.45.44-2.56Zm16.91,4.28c-.43,1-1.08,2.4-2.41,2.7,0-.91.32-3.11.32-5.85.8.22,1.34.29,2.33.56a4.66,4.66,0,0,1-.24,2.59Zm-1.2-7.86c.49-1.09,1-2.17,1.45-3.26,1,1.69.62,2.8-.89,3.5l-.56-.24Zm-1-3,.48,0c0,1-.1,2-.15,3.17l-1.92-.17,1.59-3Zm-2.8,2.82c-1.34-1.7-1.24-2.48.48-4.25,1.4,1.59.62,2.93-.48,4.25Zm-3.77-.45c.43-1.34.8-2.53,1.17-3.72l.32,0c.14,1.2.28,2.4.44,3.7ZM61.51,7.25c1.32,1.88,1.09,3.25-.66,4.6-1.5-1.19-1.38-2.19.66-4.6Zm-4.27,4.63c.17-1.13.33-2.17.49-3.22l.4-.06c.39,1.05.78,2.09,1.23,3.28ZM55.26,8c1,1.16,2.09,2.21.71,3.89-1.54-.66-1.65-1.25-.71-3.89ZM72,14.7c-.13,1.17-.47,1.81-1.8,1.54a61.5,61.5,0,0,0-15.56-1.12h0a1.25,1.25,0,0,0,0-.29c-.08-.58-.27-.93-.34-1.51C57.36,12.13,67.79,13,72,14.7ZM60.89,28.75A3,3,0,0,0,58.23,28c-.39,0-.39-.14-1.12,0-.31.06-1.49.28-1.71.76a15.63,15.63,0,0,1-1.35,3,7.87,7.87,0,0,1,.36-1.92c.48-1.06.93-2.72,1.71-2.92,2.11-.56,4.54-1.11,6,1.55.85,1.57,1.81,3.07,2.62,4.43l3.91-9.11c.77,2.31.5,5.65-.34,7-.05.09-.18.24-.15.27,1.55,2.08-.83,3.32-1.1,5l-.39-.2A15.05,15.05,0,0,0,64.37,38c-.63.85-1.11,1.53-2.34,1.46a9.69,9.69,0,0,0-2.71.73c-.39-1.61-.78-3.24-1.16-4.87l-.28-.12c-.13.72-.3,1.44-.38,2.17s-.08,1.55-.12,2.33l-.6.09c-.31-.83-.66-1.66-.93-2.5a8.13,8.13,0,0,0-.54-2.08c-1.43-2.07.23-3.71.42-5.55.27-.19.56-.38.83-.58a6.27,6.27,0,0,1,3.5.09c.68,1.27,1.42,2.1,1.95,3.29s.89,2.46,1.34,3.75c.25-.19.38-.23.39-.3.17-1.4-1.85-6.26-2.85-7.13ZM57,77.08c-.69-2.66-1.33-5.34-1.9-8-.37-1.77-.59-3.58-.92-5.36-.24-1.34-.5-2.67-.83-4a1.87,1.87,0,0,0-.69-1.11c-2.22-1.34-1.7-3.35-1.4-5.31a6.19,6.19,0,0,1,.66-2.64c.82,3.12.89,2.23,2.89,5.8.31,0,.66-.78.63-1.55-.22-3.7-.2-3.23-.42-6.93a172.44,172.44,0,0,1,3.39,30.53l-.43.2a6.5,6.5,0,0,1-1-1.61ZM45.15,64.25a20.4,20.4,0,0,1-1.6,7.94,22.8,22.8,0,0,0-1,4c-.52,2.79,2.2,6.12,5,5.66a49.17,49.17,0,0,1,5.29-.41,12.17,12.17,0,0,1,1.79.17c0,.22,0,.43,0,.64a13.78,13.78,0,0,1-8.2,1.16c-4.11-.5-5.82-2.15-5.95-6.35a23.72,23.72,0,0,1,1-7.68c1.39-4.43,3.24-8.71,5-13.36.46,1.3.85,2.39,1.31,3.67-2.07,1.3-2.65,2.58-2.61,4.54Zm9,16.07L48.32,81c-1.44-3.9,2.11-5.86,3.15-8.85l2.64,8.13ZM51.35,68.81c.59-1,2.32-.52,2.87,1.26,1.18,3.79,3.23,11.4,2.56,13.34-2.49-4.48-3.81-9.87-5.43-14.6Zm-3.81-6.58,3.77-1.48c1.13.31.87-.12,1.52,1.18-.5.18-1.85.26-2.92.65-.84.31-1.68,1-2.16,1.16,0,.15,0,.31,0,.46a4,4,0,0,0,2-.53c1.57-.6,2.47-.63,3.26.36a12.23,12.23,0,0,1,.62,2.19c-1.24-1.83-2.78-1.58-4.38-.82a3.66,3.66,0,0,0-.79.74c.31.26,1.09-.12,1.46-.16a7.38,7.38,0,0,1,1.66,0c1.09-.17,1.71,1.46,2.13,1.92-.52.14-1.52-.75-2.7-.31a3.26,3.26,0,0,0-1.17,2.59c1,1.7,0,2.83-.81,4.07a13.31,13.31,0,0,0-2.91,6.3c-2.28-.65-3.25-3.31-1.63-7.31C45.12,71,45.89,70,46,68.13c0-.56-.11-1.11-.12-1.67-.09-4.35.8-5.74,4.87-7.36.41-.17,1.29.36,1.78.7-2.12-.36-3.45,1.46-5.11,2l.17.45ZM39.29,72.42c.44,1.22.24,5.7.43,6.56.52,2.46,2.69,5.21,5.14,5.54a39.28,39.28,0,0,1,4.31.52c.51.12,1.58-.67,4.84-.68,2.21-.47,1.15.35,3.35-.16a22,22,0,0,1-13.93,4.67,1.85,1.85,0,0,1-1.22-.68c-.77-.87-1.44-1.82-2.31-3l1.89.49c-5.9-8-5.9-9.55-2.5-13.3Zm18.43,7.73c1.39-.45,2.61-1.83,3.53-2.12.08,0,.89-1.68,1.64-2.09s1,0,1,0c-.45.31-2.41,5.25-4,7.51-.45.66-1,2.13-1.43,2.19-.55.1-.5-.78-.7-.68s.46-4.38-.12-4.84ZM79,66.85c-.18,0-.17-6.27-.34-6.27,0-3.06.08-3.56.08-6.62.18,0,.78-2.05,1-2.05.57,2.57.63,6.62-.7,14.94ZM76.27,37.44c6.83,2.53,11.75,7,14.19,14,.89,2.55,2,5,2.71,7.67-.24-.39-.38-.93-.73-1.14a6.72,6.72,0,0,0-1.71-.55c-.08.52-.41,1.19-.2,1.54,1.21,2,1.71,4.63,3.85,6,2.41,1.54,3,4.7,2.51,7.69,0,.21-.11.41-.21.79-2.86-1.59-4.89-4.81-8.84-4.29.86-.48,1.7-1,2.58-1.42s1.89-.84,3-1.33c-1.35-2.13-3.4-.87-5-1.46-.73-2-1-2.15-3.17-1.41a7.66,7.66,0,0,0-4.39,4.34c-.3.63-.59,1.28-.89,1.92h-.52a14.09,14.09,0,0,1,0-2C80,64.47,80.66,61.14,81,57.77a12.75,12.75,0,0,0-1.24-7.23l-.57-.09a26.41,26.41,0,0,0-1,4.73c-.11,3.11.15,6.23.14,9.35a33.26,33.26,0,0,1-.43,3.86c-2.19-.19-2.22-1.63-2.37-3-.66-6.42.11-9.43-.6-15.84-.29-2.56-3.67-7-3.77-7.58,1.1-.76,5,.75,5.08-2,.54,1.29,1.07,2.59,1.68,4,1-1.47.17-2.49-.46-3.48s-1.43-2-2.25-3a3.76,3.76,0,0,1,1.08,0ZM94.72,62.71c-.19.12.32,1.94.13,2.05a39.21,39.21,0,0,1-3.92-6.58c.25-.14,1.48.14,1.53.57l2.26,4Zm9.15,23.37a28.54,28.54,0,0,1-4.76-9.55,24.32,24.32,0,0,1-1.35-6.71,7.72,7.72,0,0,0-1-4.1A8.14,8.14,0,0,1,95.12,61a13,13,0,0,0-.52-3c-1.68-6.1-5.09-11.33-8.45-16.59a2.25,2.25,0,0,0-.85-.77Q80.19,38.21,75,35.83c-.91-.42-1.86-.74-2.76-1.18-1.19-.59-2.07-1.53-1.72-2.92l.21-.82c.06-.25.12-.51.19-.76.49-1.91,1-3.84,1.63-5.73.51-1.61,1.18-3.16.32-4.82a4.37,4.37,0,0,1,0-4.17c.7-1.45,1.52-2.85,2.18-4.32,1-2.1.67-2.08-1-3.21A19.23,19.23,0,0,0,70.57,6c-10.75-3.94-17.26.22-19.35,1.32.16.75.32,1.56.5,2.38.27,1.26,1.84,5.12,1.71,5.92C52.22,23,52.61,23,53.35,28.8c0,.51.09,1.18.11,1.83,0,.27,0,.54,0,.8,0,.94,0,1.69,0,1.69l-5.71,3.73A4.47,4.47,0,0,0,45.51,35c-.5-.25-.78-.27-1.19-.51a1.79,1.79,0,0,1-.22-.13l-.57-.39c-.6-.39-1.05-.66-2.06-1.33a10.24,10.24,0,0,1-.88,2.93c-.15.36-.31.71-.45,1.06-.74,1.74-1.25,3.41.14,5.2a24.46,24.46,0,0,0-5.85,6,37.21,37.21,0,0,0-3.28,6.56,47.18,47.18,0,0,0-4,22c.25,3.25.35,6.24-1.2,9.2s-1,5.63,1.59,7.93a4.91,4.91,0,0,1,1.61,2.76c.63,5.19.94,10.43,1.63,15.61.06.44.07.71.11.94q.34.34.69.66a20.32,20.32,0,0,1,0-2.6c-.32-3.66-.64-7.32-1-11-.1-1.06-.24-2.11-.38-3.3.35.15.51.17.53.23.3,1.12.59,2.25.87,3.38,1.53,6.26,3.2,12.47,6.27,18.19,1.21.79,2.45,1.53,3.74,2.2a38.27,38.27,0,0,0,5.1.18,3,3,0,0,0,3-2.44c.24-.81.34-4.63.77-5.38.26.08.94,4,1.2,4-.36,2.9-.66,4.47-1,7.24l.61.17c.39-1.22.52-2.93,1-4a2,2,0,0,1,.56,1.6v2.81l.2,0c.2-.65.23-1.93.39-2a15,15,0,0,0,1.2,2.37l.22,0c-2.24-5.42-2.85-10-4.42-15.53a10.59,10.59,0,0,0,7.25-3.89c1.17-1.48,2.15-3.11,3.22-4.67l2.51-3.6,2.32,4.12c-2.23,8.08-4.16,16-6.85,24.14.2,0,.4,0,.61.06.57-1.31,1.67-4.69,2.17-5.45.25.59-.31,4.19-1.07,5.53q.73,0,1.47.06c.19-3.38.33-6.16.52-9.5.2,0,.79-2.47,1-2.47,0,3.33-.46,8.5-.49,12h1.24c.09-.76,0-1.55.09-2.32.28-4.41-.35-9.19-.06-13.59.25,0,1.06-3.69,1.31-3.69,0,5.24.33,14.08.35,19.54l.86-.05a2.18,2.18,0,0,0,.13-.5c.12-.76.17-1.53.31-2.28.33-1.68,0-4.12,0-5.79,0-3.28-.69-7-.78-10.28l.08-3.66c.19,0,2.27-2,2.18,1.71.27,6.94.55,13.6.82,20.52l.87-.12a6.24,6.24,0,0,0,.06-1.12q-.16-10.18-.39-20.38c0-1.52.36-1.84,1.88-1.58,1.24.2,2.49.37,4,.59,0,7.08,0,14,0,21.3.23-.06.46-.12.68-.2V106.73l.47,0c1.87,5.24,2.16,10.76,2.69,16.31l.87-.33c0-1.55,1-5.86,1.21-7.15,0,0,0,2.42,0,2.42.16,1.33.31,2.66.47,4,.28-.11.55-.24.82-.37a1.56,1.56,0,0,0,.17-.77c-.25-2.31-.61-4.61-.86-6.93-.11-.95-.15-3.48-.15-4.44a13.14,13.14,0,0,1,2,4.62c.42,2.19.48,4,.73,6.56.11-.06.22-.11.33-.18a1.51,1.51,0,0,0,.39-.8c.19-2,.3-4.11.44-6.16L87.88,92a7.4,7.4,0,0,0,0-1.33c-.2-1.56-.92-2.85-2.55-3.1-2.09-.32-4.22-.38-6.25-.54,0,0,0,0,0,0a1.15,1.15,0,0,1,.23-.36,6.52,6.52,0,0,1,10.46,1,12.87,12.87,0,0,1,1.48,3.17c1.07,4,2.18,8,3,12.14.82,4.3.94,7.41,1.28,10.32l.15-.12.07-.06.35-.34s0,0,0,0a.94.94,0,0,0,.12-.18,41.59,41.59,0,0,0,2-4.16A13.47,13.47,0,0,0,99,104a4.61,4.61,0,0,1,.93-3.37c.54-.7,1-1.46,1.5-2.21.95-1.49,1.65-3.09,1.12-4.88a2.26,2.26,0,0,1,.47-2.24c1.16-1.56,2.23-3.48.85-5.21Z"/><path class="cls-2" d="M53.5,31.43a46.37,46.37,0,0,0-9.18,3,1.79,1.79,0,0,1-.22-.13l-.57-.39a46.9,46.9,0,0,1,9.93-3.31c0,.27,0,.54,0,.8Z"/><path class="cls-2" d="M10.69,100c-.1,0-.14,0-.17,0S10,98.5,9.89,98.17a.81.81,0,0,1,.31-.82,2.13,2.13,0,0,1,.45-.25c.1,0,.2-.11.17-.18s-.2-.06-.33,0-.82.28-1.13.37c-.48.14-.89.22-1,.26s-.12.07-.11.12.1.08.22.1a.66.66,0,0,1,.47.42c.08.16.14.33.22.54l.6,1.55c0,.07,0,.1-.11.14l-3.79,1.43c-.17.06-.23,0-.25,0L5,99.92a.89.89,0,0,1,.15-1,1.84,1.84,0,0,1,.55-.29c.16-.08.23-.13.2-.21s-.14-.08-.26,0-1.1.36-1.26.41c-.4.11-.61.12-.71.16s-.13.09-.11.13.11.1.17.16a2.1,2.1,0,0,1,.24.48c.12.27,1.05,2.74,1.23,3.2s.38,1.13.61,1.77c.07.18.14.26.26.22s.09-.13,0-.25a2.65,2.65,0,0,1-.13-.5c0-.44.16-.63.67-.85s.9-.36,3.21-1.23l2.67-1c1.46-.55,2.59-1,3.25-1.16.46-.12.82-.18,1,0a2,2,0,0,1,.23.42c.05.13.11.16.19.14s.12-.15.05-.32c-.17-.46-.51-1.21-.62-1.52s-.37-1.1-.66-1.86c-.06-.19-.14-.25-.25-.21s-.1.09,0,.25a6.48,6.48,0,0,1,.17.63c.07.39-.23.58-.66.79-.61.3-1.75.73-3.21,1.28l-1.23.46Z"/><g class="cls-4"><path class="cls-2" d="M6.78,93c-2.4.55-2.84.66-3.35.75s-.85.06-1-.26A2.26,2.26,0,0,1,2.26,93c0-.15-.09-.22-.2-.2s-.12.12-.08.3c.12.49.38,1.41.45,1.71s.21,1.15.35,1.74c0,.19.1.27.21.25s.12-.11.09-.25A1.42,1.42,0,0,1,3,96.15c0-.44.24-.6.78-.75s.94-.24,3.34-.8L9.93,94c1.46-.34,2.7-.63,3.38-.72.47-.06.83-.07,1,.16a2.18,2.18,0,0,1,.16.44c0,.16.1.2.18.18s.14-.13.1-.29c-.12-.51-.35-1.29-.42-1.58-.24-1-.33-1.88-.76-3.7-.15-.66-.24-.71-.61-.7a15.11,15.11,0,0,0-1.86.23c-.19,0-.26.07-.24.16s.12.11.27.09a2.28,2.28,0,0,1,1,.1c.5.22.63.71.79,1.38.22,1,.19,1.34,0,1.61s-1.31.59-3.33,1.06L6.78,93Z"/><path class="cls-2" d="M11.88,81.22c.13,2.49-2.46,4.13-5.82,4.32C2,85.76.89,84.12.81,82.63c-.12-2.12,2-3.92,5.67-4.12,4.68-.26,5.35,1.81,5.4,2.71Zm.84.5c-.19-3.29-3.23-5.2-6.94-5S-.17,79.07,0,82.3c.22,3.89,3.88,5.15,6.65,5s6.26-1.86,6.06-5.58Z"/></g><path class="cls-2" d="M1.75,71.05c-.13,0-.19-.06-.21-.15a2.22,2.22,0,0,1,0-.69c.12-.76,1-1.86,3.24-1.51a3.28,3.28,0,0,1,2.29,1.13,1.14,1.14,0,0,1,.13,1,3,3,0,0,1-.31.95c-.07.08-.13.09-.31.07l-4.87-.76Zm6.19,2.51c1.47.23,2.74.43,3.4.59.46.13.8.25.83.51a1.9,1.9,0,0,1,0,.47c0,.16,0,.22.1.23s.17-.07.2-.23c.08-.51.15-1.33.19-1.57s.23-1.14.34-1.88c0-.17,0-.27-.12-.28s-.13,0-.15.13a4.37,4.37,0,0,1-.16.62c-.13.37-.49.4-1,.36-.68,0-1.95-.23-3.44-.47l-.23,0c-.09,0-.12-.06-.11-.12L8,70.78a.24.24,0,0,1,.15-.22c.26-.13,1.44-.55,2.4-.92a7.41,7.41,0,0,0,2.63-1.39,2.18,2.18,0,0,0,.52-1.33l.19-1.22c0-.15,0-.25-.12-.27s-.14,0-.15.14a1.7,1.7,0,0,1-.11.35,2.55,2.55,0,0,1-1.31,1.27c-1.11.6-2.68,1.26-4.65,2.12a4.94,4.94,0,0,0-3.33-2.25,3.06,3.06,0,0,0-2.33.54,3.46,3.46,0,0,0-1,2.25c-.07.4-.17,1.38-.24,1.81,0,.27-.21,1.07-.32,1.75,0,.2,0,.29.1.31s.16-.06.18-.2A2.13,2.13,0,0,1,.72,73c.17-.41.45-.47,1-.41s1,.12,3.4.5l2.82.44Z"/><path class="cls-2" d="M10.09,62.12c1.41.47,2.63.88,3.25,1.16.43.2.75.38.73.64a2.1,2.1,0,0,1-.09.47c-.05.14,0,.21.06.23s.18,0,.23-.19c.17-.49.38-1.28.48-1.57.24-.72.61-1.51,1.24-3.37.16-.47.19-.58-.18-.8A13.06,13.06,0,0,0,14.16,58c-.15-.06-.28-.1-.31,0s0,.13.19.21c.6.3.87.56,1,.94a2.76,2.76,0,0,1-.21,1.22c-.42,1.25-.72,1.37-1.79,1-.45-.14-1.86-.63-2.38-.8L9.4,60.16c-.1,0-.15-.07-.13-.13.1-.29.52-1.5.63-1.73a.73.73,0,0,1,.83-.48,4.91,4.91,0,0,1,.57.13c.08,0,.15,0,.18-.06s-.13-.17-.26-.21-.71-.27-1-.4c-.77-.3-1-.44-1.09-.47s-.13,0-.15,0,0,.14.13.27.1.36,0,.66-.54,1.71-.63,2c0,.08-.09.07-.2,0L4.41,58.48c-.1,0-.14-.07-.12-.14.08-.24.55-1.52.65-1.72.3-.59.52-.65.83-.64a2.39,2.39,0,0,1,.58.11c.14,0,.22,0,.25,0s0-.14-.13-.18-.84-.33-1-.4c-.69-.27-.86-.4-1-.43s-.14,0-.16,0a.81.81,0,0,0,0,.22,5.51,5.51,0,0,1-.09.56c-.06.24-.89,2.69-1,3.08S2.82,60,2.6,60.68c-.06.18-.06.28,0,.31s.17,0,.21-.16a2.54,2.54,0,0,1,.21-.46c.25-.37.52-.39,1.06-.24s.93.29,3.26,1.08l2.71.91Z"/><path class="cls-2" d="M9.19,51.85l0,0c.38-.06,2.85-.37,5.06-.78s4.77-.86,6-1.12c.23,0,.46-.09.53-.22s0-.22-.37-.38l-9-5c-.79-.45-1-.7-1-1.08a1.24,1.24,0,0,1,.14-.37c.07-.13.07-.22,0-.27s-.19,0-.27.19c-.3.56-.49,1-.56,1.15s-.47.76-.79,1.36c-.09.17-.14.3,0,.36s.16,0,.23-.11A1.69,1.69,0,0,1,9.62,45c.29-.2.62-.16,1.5.3l6.47,3.33,0,.06c-.33.07-3.22.51-4.61.77-3,.55-6.23,1-6.49,1.08s-.6.05-.67.18.12.26.41.41l8.4,4.65c1.24.68,1.63,1,1.58,1.31a1.64,1.64,0,0,1-.2.55c-.06.11-.07.2,0,.24s.19,0,.27-.17c.32-.6.57-1.16.62-1.26s.41-.65.81-1.4c.08-.15.11-.27,0-.33s-.15,0-.22.13a1.76,1.76,0,0,1-.42.54c-.22.17-.67.12-1.8-.45l-6.07-3.1Z"/><path class="cls-2" d="M20.66,42c1.14.95,2.13,1.77,2.61,2.26.34.33.56.62.44.86a1.58,1.58,0,0,1-.25.4c-.1.12-.09.19,0,.24s.18,0,.29-.09c.33-.4.82-1.06,1-1.29s.8-.87,1.34-1.53c.1-.11.13-.22,0-.29s-.14,0-.23.07a5.3,5.3,0,0,1-.48.47c-.3.26-.62.09-1-.17-.57-.4-1.56-1.22-2.7-2.18l-5.11-4.26,1.09-1.22c.76-.87,1.33-.85,1.67-.6l.15.11c.19.14.27.17.34.09s0-.14-.12-.25c-.33-.27-1.16-1-1.42-1.24s-.27-.2-.33-.13a4.9,4.9,0,0,1-.68,1.06L14,38.27a10.24,10.24,0,0,1-.89.95c-.24.22-.44.22-.51.3s0,.15.14.32,1.06,1.24,1.26,1.4.21.15.27.08,0-.13-.06-.24a2,2,0,0,1-.29-.53c-.15-.38,0-.67.44-1.27l1.19-1.52L20.66,42Z"/><path class="cls-2" d="M25.77,36.48c1.05,1.17,1.91,2.12,2.31,2.67.29.38.41.64.27.86a1.82,1.82,0,0,1-.31.36c-.11.1-.12.17-.07.23s.18.06.31-.05c.38-.35,1-.93,1.18-1.13s.9-.74,1.54-1.32c.1-.09.15-.2.07-.28s-.13-.06-.24,0a3.36,3.36,0,0,1-.54.39c-.33.22-.59.06-.91-.24C28.87,37.53,28,36.57,27,35.4l-1.91-2.12c-1.64-1.83-1.95-2.17-2.28-2.57s-.46-.72-.26-1a2,2,0,0,1,.26-.3c.1-.09.13-.16.05-.26s-.17,0-.29.09c-.37.33-.91.87-1.15,1.09s-.92.76-1.29,1.09c-.15.14-.21.24-.14.31s.17.07.26,0a1.66,1.66,0,0,1,.39-.26c.27-.13.55,0,.94.38s.67.7,2.32,2.54l1.91,2.12Z"/><path class="cls-2" d="M28.24,28.52l0,0c.36.13,2.67,1.05,4.81,1.75s4.6,1.54,5.81,1.91c.22.07.45.14.57.06s.06-.21-.14-.51L33.87,23c-.48-.77-.58-1.11-.35-1.41a1.35,1.35,0,0,1,.3-.26c.13-.08.17-.17.12-.25s-.19-.05-.33,0c-.53.35-.92.66-1,.74s-.78.44-1.34.81c-.17.11-.28.2-.21.31s.13.09.26,0a1.75,1.75,0,0,1,.63-.3c.35,0,.61.16,1.16,1l4.08,6-.06,0c-.33-.1-3.07-1.1-4.41-1.55-2.87-.94-6-2.08-6.21-2.17s-.55-.24-.67-.16,0,.28.15.55l5.13,8.12c.76,1.19,1,1.61.76,1.91a1.94,1.94,0,0,1-.44.38c-.11.07-.16.14-.11.22s.19.08.33,0c.57-.36,1.05-.74,1.15-.8s.67-.38,1.38-.83c.15-.1.23-.19.16-.3s-.14-.07-.26,0a1.72,1.72,0,0,1-.63.27c-.27,0-.65-.22-1.36-1.26l-3.82-5.64Z"/><path class="cls-2" d="M43,25c-.05,0-.08,0-.09-.09l-.26-4.16c0-.07,0-.15,0-.16s.08.05.11.11l2.48,3.36s0,.09,0,.11L43,25Zm2.75-.15c.06,0,.11,0,.16.06l2.16,2.87a.28.28,0,0,1,0,.39c-.12.06-.15.1-.12.2s.19.05.41,0c1-.33,1.88-.65,2.31-.81s.55-.24.51-.36-.11-.1-.21-.07a1.87,1.87,0,0,1-.53.13c-.28,0-.71-.06-1.68-1.26-1.63-2-5.87-7.52-6.47-8.25-.25-.31-.37-.42-.48-.38s-.14.24-.12.74l.46,10.68c0,.85,0,1.46-.53,1.75a2,2,0,0,1-.36.17c-.1,0-.14.09-.1.18s.13.12.28.07c.64-.24,1.29-.53,1.42-.58.38-.14.92-.29,1.31-.43.14-.05.2-.11.15-.23s-.08-.11-.23-.05l-.18.07a.45.45,0,0,1-.66-.3,3.73,3.73,0,0,1-.16-1L43,26c0-.1,0-.14.06-.16l2.72-1Z"/><path class="cls-2" d="M76.93,28a3.18,3.18,0,0,0,2.17,0,3.6,3.6,0,0,0,2-2.36c.44-1.48.2-2.68-.86-4.57L80,20.64c-.74-1.29-.87-1.92-.65-2.64a1.51,1.51,0,0,1,2-1.16A1.58,1.58,0,0,1,82.4,18a2.31,2.31,0,0,1,0,1.12c-.06.19,0,.29,0,.32s.17-.08.28-.43c.36-1.21.54-1.64.6-1.85s0-.17-.12-.23a4.91,4.91,0,0,0-1.57-.76,2.89,2.89,0,0,0-3.75,2.08,5.09,5.09,0,0,0,.74,4.23l.41.73a3.31,3.31,0,0,1,.47,2.85,1.75,1.75,0,0,1-2.19,1.28A1.86,1.86,0,0,1,76,25.25a4.58,4.58,0,0,1,.12-.83c0-.12.07-.27,0-.3s-.19.13-.27.36-.42,1.16-.67,2c-.1.34-.09.43.08.6a3.66,3.66,0,0,0,1.69.94Z"/><path class="cls-2" d="M86.05,26.26c-.63,1.35-1.18,2.51-1.53,3.1-.24.41-.46.7-.72.65a1.86,1.86,0,0,1-.45-.14c-.14-.07-.21-.05-.24,0s0,.18.16.25c.47.22,1.23.53,1.5.66s1,.54,1.82.91c.13.06.25.06.3,0s0-.15-.14-.21a4.08,4.08,0,0,1-.57-.34c-.32-.22-.24-.58-.08-1,.24-.66.78-1.82,1.42-3.17l2.84-6,1.45.74c1,.52,1.16,1.08,1,1.47l-.06.17c-.09.23-.11.31,0,.35s.13,0,.21-.18c.18-.38.7-1.38.84-1.69s.14-.31,0-.35a4.49,4.49,0,0,1-1.19-.38L88,18.88c-.39-.19-.82-.43-1.14-.63s-.33-.37-.42-.41-.15,0-.28.21-.93,1.33-1,1.57-.08.24,0,.28.13,0,.21-.11a2,2,0,0,1,.44-.42c.33-.24.65-.18,1.34.11l1.78.77-2.84,6Z"/><path class="cls-2" d="M93.6,29.52c-1.42,1.88-1.75,3.13-1.67,4.13a3.6,3.6,0,0,0,1.62,2.63,3.4,3.4,0,0,0,2.85.7c1.58-.28,2.85-1.72,3.93-3.15l1-1.38c1.49-2,1.76-2.33,2.1-2.73s.61-.59.94-.45a2,2,0,0,1,.33.19c.12.1.21.12.27,0s0-.18-.12-.28c-.41-.31-1.09-.77-1.21-.86s-.64-.54-1.16-.94c-.15-.11-.24-.14-.31-.05s0,.17.09.25a2.12,2.12,0,0,1,.34.32c.27.35.2.62-.11,1.08s-.57.79-2.06,2.75l-1.22,1.62c-1,1.33-1.92,2.47-3,2.75a2.29,2.29,0,0,1-2-.38,2.1,2.1,0,0,1-.89-1.51c-.11-.9.18-1.92,1.6-3.79l1.37-1.81c1.49-2,1.77-2.33,2.1-2.73s.61-.59.94-.45a1.69,1.69,0,0,1,.33.19c.11.08.19.1.26,0s0-.17-.14-.29c-.38-.28-1.06-.73-1.31-.92s-.93-.77-1.48-1.18c-.15-.12-.24-.15-.31-.06s0,.16.09.25a2.12,2.12,0,0,1,.37.34c.27.35.2.62-.11,1.08s-.57.79-2.06,2.75L93.6,29.52Z"/><path class="cls-2" d="M106.07,36.73c1-.83,2-1.75,2.47-2.09.14-.12.22-.14.35-.1a2.6,2.6,0,0,1,.63.57A4.54,4.54,0,0,1,110.69,39a6.34,6.34,0,0,1-2.28,3.58,5.92,5.92,0,0,1-3.78,1.79,3.63,3.63,0,0,1-2.82-1.51c-.67-.78-.74-1.38-.61-1.71a4.14,4.14,0,0,1,.84-.91c.23-.21,1.17-1,2.47-2.15l1.56-1.33Zm-3.42.79c-1.14,1-2.11,1.81-2.67,2.2-.39.27-.71.45-.93.29a1.52,1.52,0,0,1-.35-.31c-.1-.12-.17-.13-.23-.07s-.07.17,0,.3c.34.39.91,1,1.1,1.21.42.49,1,1.51,1.65,2.23a5.35,5.35,0,0,0,4.28,2.06,7.35,7.35,0,0,0,4.36-1.87,6.59,6.59,0,0,0,2.31-3.63c.49-2.28-.92-3.92-2-5.16-.51-.59-1.08-1.18-1.34-1.48s-.73-.93-1.17-1.46c-.13-.14-.21-.19-.3-.12s-.06.15,0,.26a2,2,0,0,1,.29.42c.2.4.07.65-.34,1s-.72.65-2.59,2.25l-2.17,1.85Z"/><path class="cls-2" d="M109.83,46.8c-1.34.83-2.43,1.5-3,1.8-.42.22-.69.3-.88.11a1.67,1.67,0,0,1-.3-.36c-.09-.14-.15-.15-.22-.11s-.09.16,0,.3c.28.45.75,1.12.9,1.37s.58,1,1,1.75c.07.12.17.18.26.12s.08-.12,0-.24a5.48,5.48,0,0,1-.29-.6c-.15-.36,0-.6.41-.86.56-.41,1.65-1.08,3-1.91l2.43-1.5c2.1-1.29,2.49-1.53,2.94-1.78s.79-.33,1-.08a2.12,2.12,0,0,1,.25.31c.07.11.14.16.25.09s0-.16,0-.3c-.26-.42-.7-1-.87-1.32s-.58-1-.84-1.46c-.11-.18-.19-.25-.28-.2s-.09.15,0,.26a1.35,1.35,0,0,1,.19.43c.08.29-.08.55-.54.86s-.81.53-2.91,1.82l-2.43,1.5Z"/><path class="cls-2" d="M111,57.42c-1-2.3.93-4.71,4-6,3.73-1.56,5.34-.39,5.92,1,.82,2-.61,4.38-4,5.79-4.32,1.81-5.64.09-6-.75Zm-1-.19c1.27,3,4.78,3.82,8.21,2.38s4.81-4.2,3.56-7.18c-1.5-3.59-5.37-3.56-7.93-2.48s-5.29,3.85-3.84,7.28Z"/><path class="cls-2" d="M123.91,63.34c.13,0,.2,0,.25.07a2.33,2.33,0,0,1,.19.66c.15.76-.28,2.08-2.54,2.52a3.24,3.24,0,0,1-2.53-.29,1.14,1.14,0,0,1-.45-.86,2.81,2.81,0,0,1,0-1c0-.09.08-.13.26-.17l4.84-.93Zm-6.68-.27c-1.46.28-2.72.52-3.4.59-.47,0-.84,0-1-.2a2.13,2.13,0,0,1-.15-.45c0-.15-.09-.19-.17-.18s-.14.12-.11.29c.1.51.3,1.3.35,1.55s.17,1.14.32,1.88c0,.16.09.24.2.22s.12-.07.1-.18a5.63,5.63,0,0,1-.06-.63c0-.4.33-.54.78-.67.66-.19,1.92-.43,3.4-.72l.22,0c.1,0,.14,0,.15.07l.18,1.12A.24.24,0,0,1,118,66c-.21.21-1.18,1-2,1.68a7.4,7.4,0,0,0-2,2.2,2.17,2.17,0,0,0,0,1.42l.23,1.22c0,.15.08.23.21.21a.14.14,0,0,0,.1-.18,1.9,1.9,0,0,1,0-.37,2.59,2.59,0,0,1,.81-1.63c.84-1,2.09-2.1,3.66-3.58a4.91,4.91,0,0,0,3.89,1,3.07,3.07,0,0,0,2-1.29,3.52,3.52,0,0,0,.24-2.48c-.08-.39-.31-1.35-.4-1.79,0-.26-.16-1.08-.29-1.75,0-.19-.08-.28-.19-.25s-.13.1-.11.24a2,2,0,0,1,0,.51c0,.44-.26.59-.8.72s-1,.21-3.37.68l-2.81.54Z"/><path class="cls-2" d="M119.82,74.84c-2.35,0-3.55.47-4.3,1.13a3.62,3.62,0,0,0-1.14,2.87,3.45,3.45,0,0,0,1.15,2.71c1.16,1.09,3.08,1.25,4.88,1.26h1.73c2.47,0,2.92,0,3.44.05s.85.13.92.48a1.33,1.33,0,0,1,0,.38c0,.16,0,.23.15.23s.14-.09.14-.27c0-.5,0-1.32,0-1.48,0,0,.06-.83.06-1.49,0-.18,0-.27-.14-.27s-.15.07-.15.22a2.09,2.09,0,0,1,0,.46c-.12.43-.38.53-.93.56s-1,0-3.44,0h-2c-1.67,0-3.13-.06-4-.78a2.3,2.3,0,0,1-.86-1.8,2.08,2.08,0,0,1,.67-1.61c.66-.64,1.65-1,4-1h2.27c2.47,0,2.92,0,3.44,0s.84.14.92.49a1.22,1.22,0,0,1,0,.37c0,.13,0,.21.14.21s.15-.09.15-.28c0-.47,0-1.29,0-1.6s.06-1.21.06-1.89c0-.2,0-.29-.14-.29s-.15.08-.15.22a2.2,2.2,0,0,1,0,.5c-.12.43-.38.53-.93.56s-1,0-3.44,0Z"/><path class="cls-2" d="M115.77,86c-.52-.2-1.11-.45-1.12-.83a1.72,1.72,0,0,1,0-.39c0-.12,0-.2-.06-.22s-.19,0-.22.18c-.1.4-.2,1-.26,1.26s-.24.78-.37,1.31c0,.19,0,.31.1.35s.13-.06.15-.16a2.07,2.07,0,0,1,.21-.52.51.51,0,0,1,.6-.25,6.53,6.53,0,0,1,.73.22l6.11,2.19v0c-1.29.15-3.46.42-3.82.45s-3.13.45-3.93.58c-.52.08-.87.13-.9.25s.1.21.77.68l6.48,4.5v.05l-7.12-.94c-.45-.06-.65-.15-.66-.23s-.06-.16-.14-.18-.16,0-.26.32c-.17.5-.64,2.22-.72,2.54s0,.34.09.37.13-.06.16-.18a2.17,2.17,0,0,1,.35-.74c.23-.34.72-.36,1.74-.23l10,1.24c.34,0,.52,0,.55-.11s-.08-.22-.32-.37l-8.16-5.63,9.73-1.27c.45-.06.55-.12.58-.22s-.1-.21-.36-.32l-10-3.75Z"/><path class="cls-2" d="M108.74,113c-1.78-1.52-3-1.93-4-1.91a3.63,3.63,0,0,0-2.73,1.46,3.38,3.38,0,0,0-.86,2.81c.18,1.59,1.54,2.94,2.91,4.11l1.32,1.13c1.87,1.6,2.22,1.9,2.59,2.25s.56.65.39,1a1.45,1.45,0,0,1-.2.32c-.1.12-.13.2,0,.27s.17,0,.28-.11c.33-.39.83-1,.93-1.16s.58-.6,1-1.1c.11-.14.15-.23.06-.3s-.16,0-.25.07a2.45,2.45,0,0,1-.34.32c-.37.25-.63.16-1.07-.17s-.76-.62-2.63-2.22l-1.54-1.32c-1.27-1.08-2.36-2.06-2.57-3.18a2.27,2.27,0,0,1,.5-1.93,2.08,2.08,0,0,1,1.56-.81c.9-.06,1.9.3,3.69,1.83l1.73,1.47c1.87,1.61,2.21,1.9,2.59,2.26s.56.65.39,1a1.45,1.45,0,0,1-.2.32c-.09.1-.11.18,0,.25s.17,0,.3-.12c.3-.35.8-1,1-1.24s.82-.89,1.27-1.41c.12-.15.16-.24.07-.31s-.16,0-.25.07a1.91,1.91,0,0,1-.37.35c-.36.26-.63.17-1.06-.17s-.76-.62-2.64-2.22l-1.8-1.54Z"/><path class="cls-2" d="M102.21,125.51l0,0c-.37-.1-2.74-.85-4.93-1.39s-4.69-1.21-5.93-1.49c-.22-.06-.45-.11-.57,0s0,.22.17.5L97,131.38c.54.73.66,1.07.45,1.39a1.4,1.4,0,0,1-.28.27c-.13.1-.16.18-.1.26s.19,0,.33-.06c.5-.39.87-.72,1-.81s.74-.5,1.28-.91c.16-.12.26-.22.18-.32s-.13-.09-.25,0a1.72,1.72,0,0,1-.61.34c-.34,0-.62-.12-1.23-.9l-4.5-5.73.05,0c.33.08,3.14.88,4.51,1.23,2.93.73,6.1,1.64,6.35,1.72s.57.19.69.11,0-.29-.2-.54l-5.71-7.73c-.84-1.13-1.08-1.54-.89-1.84a1.64,1.64,0,0,1,.41-.42c.11-.08.15-.15.09-.23s-.19-.06-.32,0c-.54.41-1,.82-1.09.89s-.64.42-1.31.93c-.15.11-.22.21-.14.31s.14.06.25,0a1.69,1.69,0,0,1,.61-.32c.27-.06.66.17,1.45,1.16l4.22,5.35Z"/><path class="cls-2" d="M90.18,128.23c-.75-1.39-1.35-2.52-1.61-3.15-.19-.43-.25-.71,0-.89a1.56,1.56,0,0,1,.38-.28c.14-.07.16-.14.12-.21s-.15-.1-.3,0c-.46.24-1.16.67-1.42.81s-1.06.5-1.81.91c-.13.06-.2.16-.14.26s.12.08.24,0a4.73,4.73,0,0,1,.62-.25c.37-.13.59.09.83.46.37.59,1,1.72,1.72,3.11l1.34,2.52c1.16,2.17,1.37,2.57,1.59,3s.29.81,0,1a2.31,2.31,0,0,1-.32.22c-.12.06-.17.13-.11.24s.15.07.3,0c.43-.23,1.09-.64,1.37-.79s1.08-.52,1.52-.75c.18-.1.25-.18.21-.26s-.15-.11-.26-.05a1.49,1.49,0,0,1-.44.17c-.29.06-.54-.12-.82-.6s-.48-.84-1.64-3l-1.34-2.52Z"/><path class="cls-2" d="M80.47,128.68c-.48-.64-.63-.83-.79-.78s-.16.33-.18,1.33,0,2.73,0,5.24c0,2.12-.07,3.06-.06,4.67a3.38,3.38,0,0,1-.2,1.61,1,1,0,0,1-.54.39c-.13,0-.19.09-.15.2s.14.11.3,0c.37-.12.93-.37,1.14-.44s.69-.18,1.31-.39c.23-.08.33-.15.29-.27s-.14-.09-.25,0a1.54,1.54,0,0,1-.52.09.32.32,0,0,1-.26-.24,2.42,2.42,0,0,1-.08-.6c0-1.12-.14-6.61-.18-8.48h0l4.48,6.25a6.21,6.21,0,0,1,.69,1.09.44.44,0,0,1,0,.36A.68.68,0,0,1,85,139c-.11,0-.17.1-.14.2s.19.1.33.05c.62-.21,1.19-.46,1.5-.56s1.14-.34,1.8-.56c.18-.07.31-.13.27-.25a.13.13,0,0,0-.2-.09,1.36,1.36,0,0,1-.5.1c-.49,0-.76-.1-1.33-.85l-6.28-8.33Z"/><path class="cls-2" d="M73.21,134.44c-.2-1.48-.38-2.75-.4-3.43,0-.47,0-.84.25-.94a1.45,1.45,0,0,1,.45-.12c.16,0,.2-.08.19-.16s-.11-.15-.28-.13c-.51.07-1.32.23-1.61.27-.76.11-1.64.13-3.58.4-.49.06-.6.08-.63.51a14,14,0,0,0,.07,1.81c0,.16,0,.28.14.27s.11-.08.11-.26c0-.67.11-1,.42-1.27a2.74,2.74,0,0,1,1.18-.36c1.31-.18,1.55,0,1.73,1.14.08.47.26,2,.34,2.49l.17,1.27c0,.1,0,.17-.05.17-.31.05-1.59.2-1.83.21a.75.75,0,0,1-.81-.53,4.07,4.07,0,0,1-.13-.57c0-.08,0-.15-.14-.13s-.09.19-.07.32.08.76.1,1.08c.07.83,0,1.09,0,1.19s.06.12.11.12.11-.1.18-.24.28-.25.58-.33,1.77-.27,2.06-.31c.07,0,.09.05.11.16l.56,4.07c0,.11,0,.17-.07.17-.26,0-1.61.19-1.84.19-.65,0-.81-.18-.94-.46a2,2,0,0,1-.15-.57c0-.14-.06-.22-.15-.21s-.1.11-.1.19.07.91.08,1.07c.06.75,0,.95,0,1.06s0,.15.09.14a1.21,1.21,0,0,0,.2-.09,4.13,4.13,0,0,1,.54-.18c.24,0,2.8-.4,3.21-.45s1.18-.11,1.86-.21c.19,0,.28-.07.26-.18s-.09-.13-.23-.12a1.83,1.83,0,0,1-.51,0c-.44,0-.58-.29-.68-.84s-.16-1-.49-3.4l-.39-2.83Z"/><path class="cls-2" d="M63.39,141.75c0,.13,0,.19-.13.22a2.25,2.25,0,0,1-.69,0c-.76,0-2-.75-1.85-3.05a3.21,3.21,0,0,1,.88-2.4,1.08,1.08,0,0,1,.93-.23,2.85,2.85,0,0,1,1,.2c.09.06.11.12.1.3l-.22,4.93Zm1.82-6.43c.07-1.49.13-2.77.22-3.45.08-.47.16-.82.42-.88a2.05,2.05,0,0,1,.47,0c.16,0,.21,0,.21-.12s-.08-.16-.25-.17c-.52,0-1.33,0-1.58,0s-1.15-.1-1.9-.13c-.17,0-.27,0-.27.15s0,.13.15.14a4,4,0,0,1,.63.09c.39.08.45.44.47.91,0,.69,0,2-.1,3.47v.23c0,.1,0,.13-.11.13l-1.12-.09a.24.24,0,0,1-.23-.12c-.16-.25-.71-1.38-1.18-2.3a7.39,7.39,0,0,0-1.67-2.46,2.2,2.2,0,0,0-1.37-.37l-1.24-.05c-.15,0-.24,0-.25.15s0,.13.15.13a2,2,0,0,1,.36.07c.19,0,.72.19,1.4,1.16S60,134.27,61,136.13a4.89,4.89,0,0,0-1.87,3.56,3.08,3.08,0,0,0,.78,2.26,3.45,3.45,0,0,0,2.35.8c.4,0,1.39,0,1.83,0,.27,0,1.09.1,1.77.13.2,0,.29,0,.3-.14s-.08-.14-.22-.15a2.72,2.72,0,0,1-.5-.07c-.42-.14-.52-.4-.52-.95s0-1,.13-3.44l.13-2.85Z"/><path class="cls-2" d="M53.79,129.67a3.22,3.22,0,0,0-2.16.19,3.55,3.55,0,0,0-1.82,2.48c-.34,1.5,0,2.68,1.15,4.51l.28.41c.82,1.23,1,1.86.81,2.58a1.51,1.51,0,0,1-1.88,1.28A1.55,1.55,0,0,1,49,140a2.18,2.18,0,0,1-.08-1.12c0-.18,0-.29-.07-.31s-.16.1-.24.44c-.29,1.24-.44,1.68-.49,1.89s0,.17.13.23a5.17,5.17,0,0,0,1.62.65,2.88,2.88,0,0,0,3.61-2.31,5.11,5.11,0,0,0-1-4.18l-.45-.7a3.33,3.33,0,0,1-.66-2.82,1.77,1.77,0,0,1,2.11-1.41,1.85,1.85,0,0,1,1.44,2,3.56,3.56,0,0,1-.07.84c0,.12-.05.27.07.29s.18-.14.24-.37.34-1.19.54-2.06c.08-.35.06-.43-.11-.59a3.71,3.71,0,0,0-1.76-.84Z"/><path class="cls-2" d="M46,132.34c.54-1.48,1-2.68,1.28-3.3.2-.43.37-.66.63-.63a1.6,1.6,0,0,1,.46.1c.15.06.22,0,.24,0s0-.18-.18-.24c-.49-.18-1.27-.42-1.55-.52s-1.08-.45-1.89-.75c-.13,0-.25,0-.29.07s0,.15.16.2a3.23,3.23,0,0,1,.59.29c.35.19.33.5.22.92-.2.67-.64,1.88-1.18,3.35l-1,2.68c-.85,2.31-1,2.74-1.21,3.22s-.42.75-.77.7a1.49,1.49,0,0,1-.39-.09c-.12,0-.2,0-.25.08s.06.16.21.22c.47.17,1.2.39,1.51.5s1.1.46,1.56.63c.2.07.31.08.34,0s0-.17-.14-.22a1.34,1.34,0,0,1-.41-.22c-.24-.18-.27-.48-.1-1s.31-.92,1.16-3.23l1-2.68Z"/><path class="cls-2" d="M38.74,129.24c.69-1.32,1.28-2.46,1.65-3,.25-.4.48-.68.74-.62a2.06,2.06,0,0,1,.45.16c.13.07.2.05.24,0s0-.18-.16-.26c-.46-.24-1.21-.57-1.47-.71s-1-.59-1.79-1c-.13-.07-.24-.07-.29,0s0,.15.12.21a4.48,4.48,0,0,1,.56.36c.32.24.22.59.05,1-.26.65-.85,1.79-1.54,3.12l-3.06,5.9-1.43-.79c-1-.56-1.11-1.13-.94-1.51l.07-.17c.1-.22.12-.3,0-.35s-.13,0-.22.18c-.19.37-.74,1.35-.9,1.65s-.14.31-.06.35a4.91,4.91,0,0,1,1.18.43l4.56,2.36a10.69,10.69,0,0,1,1.12.67c.27.18.31.38.4.43s.15,0,.28-.2,1-1.3,1.1-1.53.1-.25,0-.29-.14,0-.22.11a2.26,2.26,0,0,1-.46.4c-.33.23-.65.16-1.33-.16l-1.75-.83,3.06-5.91Z"/><path class="cls-2" d="M30.79,124.77s0,.08,0,.12l-3.42,2.38c-.05,0-.12.09-.15.06s0-.09,0-.15l1.58-3.86s.06-.08.11,0l1.87,1.49Zm-1.55-2.28s-.06-.09,0-.17L30.53,119c.08-.2.24-.25.33-.22s.17.07.23,0-.05-.19-.22-.35c-.79-.67-1.53-1.26-1.9-1.55s-.49-.35-.57-.25,0,.15.05.21a2.39,2.39,0,0,1,.39.39c.16.23.31.64-.21,2.09-.89,2.45-3.38,8.92-3.7,9.81-.13.38-.16.54-.06.61s.27,0,.68-.28l8.9-5.94c.71-.47,1.24-.75,1.77-.45l.34.22c.08.07.14.07.2,0s0-.18-.09-.28c-.53-.43-1.12-.83-1.23-.92-.32-.25-.72-.64-1-.9-.11-.08-.19-.11-.27,0s0,.12.07.22l.15.12a.43.43,0,0,1,.09.71,3.65,3.65,0,0,1-.76.66l-2,1.38c-.08.06-.12.07-.17,0l-2.26-1.81Z"/><path class="cls-2" d="M26.71,114.47a3.21,3.21,0,0,0-1.87-1.09,3.58,3.58,0,0,0-2.92,1c-1.15,1-1.58,2.18-1.66,4.34v.5c0,1.49-.27,2.09-.82,2.59a1.52,1.52,0,0,1-2.28,0,1.56,1.56,0,0,1-.35-1.58,2.25,2.25,0,0,1,.57-1c.15-.13.19-.22.13-.29s-.19,0-.45.22c-.95.84-1.33,1.12-1.49,1.26a.2.2,0,0,0,0,.27,5,5,0,0,0,.95,1.46,2.88,2.88,0,0,0,4.28.19,5.14,5.14,0,0,0,1.58-4l0-.83a3.29,3.29,0,0,1,1.08-2.68,1.76,1.76,0,0,1,2.54.06,1.86,1.86,0,0,1,0,2.47,4.1,4.1,0,0,1-.54.64c-.1.09-.2.2-.12.28s.23,0,.42-.16,1-.78,1.62-1.37c.27-.24.3-.32.25-.55a3.69,3.69,0,0,0-.95-1.7Z"/><path class="cls-2" d="M111.58,78.16c0,26.8-21.57,48.6-48.08,48.6S15.41,105,15.41,78.16A48.69,48.69,0,0,1,40.54,35.45l.05.09c-.15.36-.31.71-.45,1.06a48.06,48.06,0,0,0-9.22,76.18q.34.34.69.66a47.79,47.79,0,0,0,6.32,4.92c1.21.79,2.45,1.53,3.74,2.2a45.92,45.92,0,0,0,9,3.63l.61.17c.51.14,1,.27,1.54.39l.2,0c.53.13,1.06.24,1.59.34l.22,0c1.32.25,2.67.44,4,.57.2,0,.4,0,.61.06l1.1.08q.73,0,1.47.06c.34,0,.68,0,1,0h1.24c.57,0,1.13,0,1.69-.06l.86-.05c.92-.07,1.83-.16,2.74-.28l.87-.12A45.78,45.78,0,0,0,76,124.26c.23-.06.46-.12.68-.2,1.07-.31,2.13-.66,3.16-1l.87-.33c.58-.23,1.15-.47,1.71-.73.28-.11.55-.24.82-.37.66-.3,1.3-.62,1.94-1,.11-.06.22-.11.33-.18a47.46,47.46,0,0,0,10-7.18l.07-.06.35-.34s0,0,0,0a47.9,47.9,0,0,0,14.77-34.67c0-23.52-17.14-43.67-40-47.25.06-.25.12-.51.19-.76,23.22,3.65,40.62,24.13,40.62,48Z"/><path class="cls-2" d="M118.11,108.52a13.44,13.44,0,0,0-2.37-2.41,11.55,11.55,0,0,0-2.91-.38l.08-.16a8.08,8.08,0,0,0,1.56,0c.66,0,2-.54,2-1.16s-.6-1.2-1.07-1.43a6.36,6.36,0,0,0-2.88-.14s2.49.63,2.43,1.37c0,.46-1.66.89-1.66.89l-.41-.59-.06.52-.62-.65,1-.21-.42-.63-1.16.35,1.06,1.48-.1.21s-.48-.92-.77-1.06a5.53,5.53,0,0,0-2,0h0s.75,1.33,1.2,1.53a3.68,3.68,0,0,0,1.31-.06l-.1.21-1.82.09.46,1.13.75-.07-.45-.9.9.08-.38.37.73,0s.65,1.53.32,1.86c-.53.51-2.57-1-2.57-1a6.48,6.48,0,0,0,1.91,2.15,1.64,1.64,0,0,0,1.79-.06c.45-.43,0-1.86-.37-2.3a7.16,7.16,0,0,0-1-1.19l.08-.16a12,12,0,0,0,2.12,2,13.53,13.53,0,0,0,3.36.33Z"/><path class="cls-2" d="M11,112a13.44,13.44,0,0,1,2.37-2.41,11.43,11.43,0,0,1,2.9-.38l-.07-.16a8.08,8.08,0,0,1-1.56,0c-.67,0-2-.54-2-1.16s.61-1.2,1.08-1.43a6.32,6.32,0,0,1,2.88-.13s-2.5.62-2.43,1.36c0,.46,1.65.89,1.65.89l.42-.59.05.53.63-.66-1-.21.41-.63,1.17.35-1.07,1.48.1.21s.48-.92.78-1.06a5.48,5.48,0,0,1,1.94,0h0s-.76,1.33-1.2,1.53a3.66,3.66,0,0,1-1.31-.06l.1.21,1.82.09L18.21,111l-.75-.07.45-.89-.9.07.37.37-.72,0s-.66,1.52-.32,1.85c.53.51,2.56-1,2.56-1A6.36,6.36,0,0,1,17,113.35a1.64,1.64,0,0,1-1.79-.06c-.45-.43,0-1.85.37-2.3a8.13,8.13,0,0,1,1-1.19l-.08-.16a11.82,11.82,0,0,1-2.13,2A13.49,13.49,0,0,1,11,112Z"/></svg>