<svg id="Livello_1" data-name="Livello 1" xmlns="http://www.w3.org/2000/svg" viewBox="0 0 121.91 66.56"><defs><style>.cls-1{fill:#393939;opacity:0.15;}</style></defs><path class="cls-1" d="M119.44,27.22,94.69,2.47a8.44,8.44,0,0,0-11.93,0h0a8.44,8.44,0,0,0,0,11.93l24.75,24.75a8.44,8.44,0,0,0,11.93,0h0A8.43,8.43,0,0,0,119.44,27.22ZM86.19,10.92a3.55,3.55,0,1,1,5,0A3.54,3.54,0,0,1,86.19,10.92ZM98.57,23.3a3.55,3.55,0,1,1,5,0A3.56,3.56,0,0,1,98.57,23.3ZM111,35.69a3.55,3.55,0,1,1,5,0A3.54,3.54,0,0,1,111,35.69Z"/><path class="cls-1" d="M107.48,27.41,82.73,52.16a8.43,8.43,0,0,0,0,11.93h0a8.44,8.44,0,0,0,11.93,0l24.75-24.75a8.44,8.44,0,0,0,0-11.93h0A8.43,8.43,0,0,0,107.48,27.41ZM91.17,60.66a3.55,3.55,0,1,1,0-5A3.54,3.54,0,0,1,91.17,60.66Zm12.39-12.38a3.55,3.55,0,1,1,0-5A3.56,3.56,0,0,1,103.56,48.28Zm12.38-12.39a3.55,3.55,0,1,1,0-5A3.54,3.54,0,0,1,115.94,35.89Z"/><path class="cls-1" d="M113.48,24.86H61a8.44,8.44,0,0,0-8.44,8.44h0A8.43,8.43,0,0,0,61,41.73h52.5a8.42,8.42,0,0,0,8.43-8.43h0A8.43,8.43,0,0,0,113.48,24.86Zm-52.54,12a3.55,3.55,0,1,1,3.55-3.55A3.55,3.55,0,0,1,60.94,36.83Zm17.51,0A3.55,3.55,0,1,1,82,33.28,3.55,3.55,0,0,1,78.45,36.83Zm17.51,0a3.55,3.55,0,1,1,3.55-3.55A3.55,3.55,0,0,1,96,36.83Zm17.52,0A3.55,3.55,0,1,1,117,33.28,3.55,3.55,0,0,1,113.48,36.83Z"/><path class="cls-1" d="M60.94,24.86H8.44A8.44,8.44,0,0,0,0,33.3H0a8.43,8.43,0,0,0,8.44,8.43h52.5a8.42,8.42,0,0,0,8.43-8.43h0A8.43,8.43,0,0,0,60.94,24.86ZM8.4,36.83A3.55,3.55,0,1,1,12,33.28,3.55,3.55,0,0,1,8.4,36.83Zm17.51,0a3.55,3.55,0,1,1,3.55-3.55A3.55,3.55,0,0,1,25.91,36.83Zm17.51,0A3.55,3.55,0,1,1,47,33.28,3.55,3.55,0,0,1,43.42,36.83Zm17.52,0a3.55,3.55,0,1,1,3.55-3.55A3.55,3.55,0,0,1,60.94,36.83Z"/></svg>