<svg id="Livello_1" data-name="Livello 1" xmlns="http://www.w3.org/2000/svg" viewBox="0 0 140.07 281.89"><defs><style>.cls-1{fill:#393939;opacity:0.2;}</style></defs><path class="cls-1" d="M137.6,242.55,112.85,217.8a8.44,8.44,0,0,0-11.93,0h0a8.43,8.43,0,0,0,0,11.93l24.75,24.75a8.43,8.43,0,0,0,11.93,0h0A8.44,8.44,0,0,0,137.6,242.55Zm-33.26-16.3a3.55,3.55,0,1,1,5,0A3.56,3.56,0,0,1,104.34,226.25Zm12.39,12.38a3.55,3.55,0,1,1,5,0A3.54,3.54,0,0,1,116.73,238.63ZM129.11,251a3.55,3.55,0,1,1,5,0A3.56,3.56,0,0,1,129.11,251Z"/><path class="cls-1" d="M125.63,242.74l-24.75,24.75a8.44,8.44,0,0,0,0,11.93h0a8.44,8.44,0,0,0,11.93,0l24.75-24.75a8.44,8.44,0,0,0,0-11.93h0A8.43,8.43,0,0,0,125.63,242.74ZM109.33,276a3.55,3.55,0,1,1,0-5A3.54,3.54,0,0,1,109.33,276Zm12.38-12.38a3.55,3.55,0,1,1,0-5A3.56,3.56,0,0,1,121.71,263.61Zm12.39-12.39a3.55,3.55,0,1,1,0-5A3.55,3.55,0,0,1,134.1,251.22Z"/><path class="cls-1" d="M131.63,240.19H79.13a8.44,8.44,0,0,0-8.44,8.44h0a8.43,8.43,0,0,0,8.44,8.43h52.5a8.43,8.43,0,0,0,8.44-8.43h0A8.44,8.44,0,0,0,131.63,240.19Zm-52.54,12a3.55,3.55,0,1,1,3.55-3.55A3.55,3.55,0,0,1,79.09,252.16Zm17.51,0a3.55,3.55,0,1,1,3.55-3.55A3.55,3.55,0,0,1,96.6,252.16Zm17.52,0a3.55,3.55,0,1,1,3.55-3.55A3.55,3.55,0,0,1,114.12,252.16Zm17.51,0a3.55,3.55,0,1,1,3.55-3.55A3.55,3.55,0,0,1,131.63,252.16Z"/><path class="cls-1" d="M87.09,245.79,69.41,196.36a8.43,8.43,0,0,0-10.78-5.11h0A8.44,8.44,0,0,0,53.53,202L71.2,251.47A8.44,8.44,0,0,0,82,256.58h0A8.45,8.45,0,0,0,87.09,245.79Zm-29-45.44a3.55,3.55,0,1,1,4.54,2.15A3.55,3.55,0,0,1,58.13,200.35ZM64,216.84A3.55,3.55,0,1,1,68.57,219,3.55,3.55,0,0,1,64,216.84Zm5.89,16.49a3.55,3.55,0,1,1,4.54,2.15A3.55,3.55,0,0,1,69.92,233.33Zm5.9,16.49A3.55,3.55,0,1,1,80.36,252,3.54,3.54,0,0,1,75.82,249.82Z"/><path class="cls-1" d="M69.4,196.33,51.72,146.89a8.43,8.43,0,0,0-10.78-5.1h0a8.43,8.43,0,0,0-5.1,10.78L53.51,202a8.43,8.43,0,0,0,10.78,5.1h0A8.43,8.43,0,0,0,69.4,196.33Zm-29-45.45A3.55,3.55,0,1,1,45,153,3.55,3.55,0,0,1,40.44,150.88Zm5.9,16.49a3.55,3.55,0,1,1,4.53,2.15A3.54,3.54,0,0,1,46.34,167.37Zm5.89,16.5A3.55,3.55,0,1,1,56.77,186,3.55,3.55,0,0,1,52.23,183.87Zm5.9,16.49a3.55,3.55,0,1,1,4.54,2.15A3.55,3.55,0,0,1,58.13,200.36Z"/><path class="cls-1" d="M51.71,146.82,34,97.38a8.43,8.43,0,0,0-10.78-5.1h0a8.44,8.44,0,0,0-5.11,10.78L35.82,152.5a8.44,8.44,0,0,0,10.78,5.11h0A8.45,8.45,0,0,0,51.71,146.82Zm-29-45.44a3.55,3.55,0,1,1,4.54,2.14A3.55,3.55,0,0,1,22.75,101.38Zm5.89,16.49A3.55,3.55,0,1,1,33.18,120,3.56,3.56,0,0,1,28.64,117.87Zm5.9,16.49a3.55,3.55,0,1,1,4.54,2.15A3.55,3.55,0,0,1,34.54,134.36Zm5.9,16.49A3.55,3.55,0,1,1,45,153,3.55,3.55,0,0,1,40.44,150.85Z"/><path class="cls-1" d="M34.06,97.36,16.38,47.92A8.44,8.44,0,0,0,5.6,42.81h0A8.45,8.45,0,0,0,.49,53.6L18.17,103A8.44,8.44,0,0,0,29,108.14h0A8.44,8.44,0,0,0,34.06,97.36ZM5.1,51.91a3.55,3.55,0,1,1,4.54,2.15A3.55,3.55,0,0,1,5.1,51.91ZM11,68.4a3.55,3.55,0,1,1,4.54,2.15A3.56,3.56,0,0,1,11,68.4Zm5.9,16.49A3.55,3.55,0,1,1,21.43,87,3.54,3.54,0,0,1,16.89,84.89Zm5.9,16.49a3.55,3.55,0,1,1,4.53,2.15A3.54,3.54,0,0,1,22.79,101.38Z"/><path class="cls-1" d="M15.23,55.73l31.11-42.3a8.44,8.44,0,0,0-1.8-11.79h0a8.44,8.44,0,0,0-11.79,1.8L1.64,45.73a8.45,8.45,0,0,0,1.8,11.8h0A8.44,8.44,0,0,0,15.23,55.73ZM36.72,6.31a3.55,3.55,0,1,1,.76,5A3.54,3.54,0,0,1,36.72,6.31ZM26.34,20.42a3.55,3.55,0,1,1,.76,5A3.56,3.56,0,0,1,26.34,20.42ZM16,34.53a3.55,3.55,0,1,1,.75,5A3.55,3.55,0,0,1,16,34.53ZM5.59,48.64a3.55,3.55,0,1,1,.76,5A3.55,3.55,0,0,1,5.59,48.64Z"/></svg>