<svg id="Livello_1" data-name="Livello 1" xmlns="http://www.w3.org/2000/svg" viewBox="0 0 86.89 66.37"><defs><style>.cls-1{fill:#fff;opacity:0.6;}</style></defs><path class="cls-1" d="M43.44,24.75h-35A8.44,8.44,0,0,0,0,33.18H0a8.44,8.44,0,0,0,8.44,8.43h35a8.43,8.43,0,0,0,8.43-8.43h0A8.43,8.43,0,0,0,43.44,24.75Zm-35,12A3.55,3.55,0,1,1,12,33.18,3.54,3.54,0,0,1,8.4,36.73Zm17.51,0a3.55,3.55,0,1,1,3.55-3.55A3.54,3.54,0,0,1,25.91,36.73Zm17.51,0A3.55,3.55,0,1,1,47,33.18,3.54,3.54,0,0,1,43.42,36.73Z"/><path class="cls-1" d="M78.45,24.75h-35A8.44,8.44,0,0,0,35,33.18h0a8.44,8.44,0,0,0,8.44,8.43h35a8.44,8.44,0,0,0,8.44-8.43h0A8.44,8.44,0,0,0,78.45,24.75Zm-35,12A3.55,3.55,0,1,1,47,33.18,3.54,3.54,0,0,1,43.41,36.73Zm17.51,0a3.55,3.55,0,1,1,3.55-3.55A3.54,3.54,0,0,1,60.92,36.73Zm17.52,0A3.55,3.55,0,1,1,82,33.18,3.54,3.54,0,0,1,78.44,36.73Z"/><path class="cls-1" d="M84.42,27.22,59.67,2.47a8.44,8.44,0,0,0-11.93,0h0a8.43,8.43,0,0,0,0,11.93L72.48,39.15a8.46,8.46,0,0,0,11.94,0h0A8.44,8.44,0,0,0,84.42,27.22ZM51.16,10.92a3.55,3.55,0,1,1,5,0A3.56,3.56,0,0,1,51.16,10.92ZM63.55,23.3a3.55,3.55,0,1,1,5,0A3.54,3.54,0,0,1,63.55,23.3ZM75.93,35.69a3.55,3.55,0,1,1,5,0A3.54,3.54,0,0,1,75.93,35.69Z"/><path class="cls-1" d="M72.48,27.22,47.74,52a8.43,8.43,0,0,0,0,11.93h0a8.44,8.44,0,0,0,11.93,0L84.42,39.15a8.44,8.44,0,0,0,0-11.93h0A8.46,8.46,0,0,0,72.48,27.22ZM56.18,60.47a3.55,3.55,0,1,1,0-5A3.54,3.54,0,0,1,56.18,60.47ZM68.57,48.09a3.55,3.55,0,1,1,0-5A3.56,3.56,0,0,1,68.57,48.09ZM81,35.7a3.55,3.55,0,1,1,0-5A3.54,3.54,0,0,1,81,35.7Z"/></svg>