<svg id="Livello_1" data-name="Livello 1" xmlns="http://www.w3.org/2000/svg" viewBox="0 0 54.01 54.01"><defs><style>.cls-1{fill:#fff;opacity:0.6;}</style></defs><path class="cls-1" d="M45.57,0h-35A8.44,8.44,0,0,0,2.13,8.44h0a8.43,8.43,0,0,0,8.44,8.43h35A8.43,8.43,0,0,0,54,8.44h0A8.44,8.44,0,0,0,45.57,0Zm-35,12a3.55,3.55,0,1,1,3.55-3.55A3.55,3.55,0,0,1,10.53,12ZM28,12a3.55,3.55,0,1,1,3.55-3.55A3.55,3.55,0,0,1,28,12Zm17.52,0a3.55,3.55,0,1,1,3.55-3.55A3.55,3.55,0,0,1,45.56,12Z"/><path class="cls-1" d="M37.13,8.44v35a8.43,8.43,0,0,0,8.44,8.43h0A8.43,8.43,0,0,0,54,43.44v-35A8.44,8.44,0,0,0,45.57,0h0A8.44,8.44,0,0,0,37.13,8.44Zm12,35a3.55,3.55,0,1,1-3.55-3.55A3.55,3.55,0,0,1,49.12,43.48Zm0-17.52a3.55,3.55,0,1,1-3.55-3.55A3.55,3.55,0,0,1,49.12,26Zm0-17.51A3.55,3.55,0,1,1,45.57,4.9,3.55,3.55,0,0,1,49.12,8.45Z"/><path class="cls-1" d="M39.6,2.47,2.47,39.6a8.44,8.44,0,0,0,0,11.93h0a8.43,8.43,0,0,0,11.93,0L51.53,14.4a8.43,8.43,0,0,0,0-11.93h0A8.44,8.44,0,0,0,39.6,2.47ZM10.92,48.11a3.55,3.55,0,1,1,0-5A3.56,3.56,0,0,1,10.92,48.11ZM23.3,35.72a3.55,3.55,0,1,1,0-5A3.54,3.54,0,0,1,23.3,35.72ZM35.69,23.34a3.55,3.55,0,1,1,0-5A3.54,3.54,0,0,1,35.69,23.34ZM48.07,11a3.55,3.55,0,1,1,0-5A3.56,3.56,0,0,1,48.07,11Z"/></svg>