<svg id="Livello_1" data-name="Livello 1" xmlns="http://www.w3.org/2000/svg" viewBox="0 0 316.86 66.56"><defs><style>.cls-1{fill:#393939;opacity:0.15;}</style></defs><path class="cls-1" d="M314.39,27.22,289.64,2.47a8.44,8.44,0,0,0-11.93,0h0a8.44,8.44,0,0,0,0,11.93l24.75,24.75a8.44,8.44,0,0,0,11.93,0h0A8.43,8.43,0,0,0,314.39,27.22Zm-33.25-16.3a3.55,3.55,0,1,1,5,0A3.54,3.54,0,0,1,281.14,10.92ZM293.52,23.3a3.55,3.55,0,1,1,5,0A3.56,3.56,0,0,1,293.52,23.3Zm12.39,12.39a3.55,3.55,0,1,1,5,0A3.54,3.54,0,0,1,305.91,35.69Z"/><path class="cls-1" d="M302.43,27.41,277.68,52.16a8.43,8.43,0,0,0,0,11.93h0a8.44,8.44,0,0,0,11.93,0l24.75-24.75a8.44,8.44,0,0,0,0-11.93h0A8.43,8.43,0,0,0,302.43,27.41ZM286.12,60.66a3.55,3.55,0,1,1,0-5A3.54,3.54,0,0,1,286.12,60.66Zm12.39-12.38a3.55,3.55,0,1,1,0-5A3.56,3.56,0,0,1,298.51,48.28Zm12.38-12.39a3.55,3.55,0,1,1,0-5A3.54,3.54,0,0,1,310.89,35.89Z"/><path class="cls-1" d="M308.43,24.86h-52.5a8.44,8.44,0,0,0-8.44,8.44h0a8.43,8.43,0,0,0,8.44,8.43h52.5a8.42,8.42,0,0,0,8.43-8.43h0A8.43,8.43,0,0,0,308.43,24.86Zm-52.54,12a3.55,3.55,0,1,1,3.55-3.55A3.55,3.55,0,0,1,255.89,36.83Zm17.51,0A3.55,3.55,0,1,1,277,33.28,3.55,3.55,0,0,1,273.4,36.83Zm17.51,0a3.55,3.55,0,1,1,3.55-3.55A3.55,3.55,0,0,1,290.91,36.83Zm17.52,0A3.55,3.55,0,1,1,312,33.28,3.55,3.55,0,0,1,308.43,36.83Z"/><path class="cls-1" d="M255.89,24.86h-52.5A8.44,8.44,0,0,0,195,33.3h0a8.43,8.43,0,0,0,8.44,8.43h52.5a8.42,8.42,0,0,0,8.43-8.43h0A8.43,8.43,0,0,0,255.89,24.86Zm-52.54,12a3.55,3.55,0,1,1,3.55-3.55A3.55,3.55,0,0,1,203.35,36.83Zm17.51,0a3.55,3.55,0,1,1,3.55-3.55A3.55,3.55,0,0,1,220.86,36.83Zm17.51,0a3.55,3.55,0,1,1,3.55-3.55A3.55,3.55,0,0,1,238.37,36.83Zm17.52,0a3.55,3.55,0,1,1,3.55-3.55A3.55,3.55,0,0,1,255.89,36.83Z"/></svg>