<svg id="Livello_1" data-name="Livello 1" xmlns="http://www.w3.org/2000/svg" viewBox="0 0 120.14 59.66"><defs><style>.cls-1{fill:#393939;}</style></defs><path class="cls-1" d="M.06,7.41V0H2.9V7.5a1.72,1.72,0,0,0,2,1.88A1.77,1.77,0,0,0,6.8,7.45V0H9.64V7.41c0,2.64-1.59,4.24-4.77,4.24S.06,10.08.06,7.41Z"/><path class="cls-1" d="M11.12,0h5.47c2.28,0,4,1.16,4,3.29a2.74,2.74,0,0,1-2,2.77v.05a2.3,2.3,0,0,1,1.67,2.1c.24,1.5.08,2.94.48,3.09v.14H18c-.3-.18-.25-1.52-.43-2.66a1.68,1.68,0,0,0-1.9-1.63H14v4.29H11.12Zm5,5.05c1.12,0,1.7-.52,1.7-1.39s-.55-1.42-1.63-1.42H14V5.05Z"/><path class="cls-1" d="M21.86,0h5.52a4.11,4.11,0,0,1,2.67.78A2.69,2.69,0,0,1,31,3a2.24,2.24,0,0,1-1.6,2.24v0a2.83,2.83,0,0,1,2,2.8,3,3,0,0,1-1.17,2.56,4.43,4.43,0,0,1-2.81.82H21.86ZM27,4.53c.82,0,1.38-.4,1.38-1.16S27.81,2.24,27,2.24H24.66V4.53Zm.23,4.64a1.34,1.34,0,0,0,1.5-1.35,1.36,1.36,0,0,0-1.54-1.37H24.66V9.17Z"/><path class="cls-1" d="M35.75,0h2.91l4.13,11.44h-3l-.67-2.06h-4l-.66,2.06H31.63Zm2.73,7.34-.86-2.77C37.43,4,37.17,3,37.17,3h0s-.27,1-.47,1.61l-.88,2.77Z"/><path class="cls-1" d="M43.58,0h2.85l3.4,5.74.78,1.46h0s0-1.38,0-1.78V0h2.77V11.44H50.53L47.17,5.77c-.19-.3-.82-1.53-.82-1.53h0s0,1.47,0,1.87v5.33H43.58Z"/><path class="cls-1" d="M55,0h2.83V11.44H55Z"/><path class="cls-1" d="M58.82,7.84h2.84c.13,1.15.88,1.63,2.25,1.63.92,0,1.84-.34,1.84-1.2s-.93-1.1-2.5-1.49c-2-.46-4.08-1.07-4.08-3.47s2-3.52,4.54-3.52S68.12.91,68.23,3.31H65.46a1.62,1.62,0,0,0-1.84-1.38c-1,0-1.65.43-1.65,1.07,0,.8.88,1,2.59,1.38,2.13.5,4,1.15,4,3.6s-2,3.73-4.69,3.73C60.88,11.71,58.88,10.37,58.82,7.84Z"/><path class="cls-1" d="M72.18,2.4H68.85V0h9.52V2.4H75v9H72.18Z"/><path class="cls-1" d="M79.44,0h2.83V11.44H79.44Z"/><path class="cls-1" d="M83.38,5.76c0-3.41,2.22-6,5.63-6a5.37,5.37,0,0,1,3.27,1A4.51,4.51,0,0,1,94,3.93H91.15A2.07,2.07,0,0,0,89,2.12c-1.85,0-2.73,1.56-2.73,3.64s1,3.62,2.75,3.62a2.11,2.11,0,0,0,2.22-1.91h2.84a4.48,4.48,0,0,1-1.38,2.93A5,5,0,0,1,89,11.7C85.66,11.7,83.38,9.18,83.38,5.76Z"/><path class="cls-1" d="M.14,16H5.3a4.35,4.35,0,0,1,3.12,1.05,3.76,3.76,0,0,1,1.15,2.82A3.61,3.61,0,0,1,5.7,23.61H3v3.83H.14Zm5,5.37a1.44,1.44,0,0,0,1.6-1.52,1.42,1.42,0,0,0-1.6-1.47H3v3Z"/><path class="cls-1" d="M10.58,16h5.47c2.27,0,4,1.16,4,3.29a2.73,2.73,0,0,1-2,2.77v.05a2.3,2.3,0,0,1,1.66,2.1c.24,1.5.08,2.94.48,3.09v.14H17.46c-.31-.18-.26-1.52-.43-2.66a1.69,1.69,0,0,0-1.91-1.63H13.41v4.29H10.58Zm5,5.05c1.12,0,1.69-.52,1.69-1.39s-.54-1.42-1.63-1.42H13.41v2.81Z"/><path class="cls-1" d="M20.85,21.74c0-3.42,2.19-6,5.65-6s5.66,2.55,5.66,6-2.19,6-5.66,6S20.85,25.17,20.85,21.74Zm8.43,0c0-2.08-.91-3.68-2.77-3.68s-2.78,1.6-2.78,3.68.94,3.67,2.78,3.67S29.28,23.82,29.28,21.74Z"/><path class="cls-1" d="M32.61,24V23h2.57v.94c0,1,.47,1.38,1.25,1.38s1.19-.51,1.19-1.34V16h2.83v8a3.56,3.56,0,0,1-.82,2.48,4,4,0,0,1-3,1.14C33.9,27.65,32.61,26.18,32.61,24Z"/><path class="cls-1" d="M41.9,16h8.68v2.33H44.74v2.05h5v2.21h-5V25h5.93v2.4H41.9Z"/><path class="cls-1" d="M51.25,21.76c0-3.41,2.22-6,5.63-6a5.37,5.37,0,0,1,3.27,1,4.47,4.47,0,0,1,1.71,3.15H59a2.08,2.08,0,0,0-2.16-1.81c-1.86,0-2.74,1.56-2.74,3.64s1.06,3.62,2.75,3.62a2.12,2.12,0,0,0,2.23-1.91h2.83a4.48,4.48,0,0,1-1.38,2.93,5,5,0,0,1-3.66,1.3C53.54,27.7,51.25,25.18,51.25,21.76Z"/><path class="cls-1" d="M65.52,18.4H62.19V16h9.52v2.4H68.35v9H65.52Z"/><path class="cls-1" d="M72.06,23.84h2.85c.13,1.15.88,1.63,2.24,1.63.93,0,1.84-.34,1.84-1.2s-.92-1.1-2.49-1.49c-2-.46-4.08-1.07-4.08-3.47s2-3.52,4.54-3.52,4.4,1.12,4.51,3.52H78.71a1.63,1.63,0,0,0-1.84-1.38c-1,0-1.65.43-1.65,1.07,0,.8.88,1,2.59,1.38,2.13.5,4,1.15,4,3.6s-2,3.73-4.69,3.73C74.13,27.71,72.13,26.37,72.06,23.84Z"/><path class="cls-1" d="M85.78,16H87.3l5.21,8c.39.59.84,1.47.84,1.47h0V16h1.34V27.44H93.25l-5.25-8c-.37-.56-.85-1.43-.85-1.43h0v9.4H85.78Z"/><path class="cls-1" d="M96.86,16H105v1.26H98.3v3.62h6v1.21h-6v4h6.84v1.33H96.86Z"/><path class="cls-1" d="M106,16h1.5l1.81,7.44c.19.77.43,1.94.43,1.94h0s.27-1.22.47-2L112.29,16h1.55l2,7.41c.21.77.47,2,.47,2h0s.27-1.24.45-1.94l1.9-7.44h1.46L117,27.44h-1.37l-2.1-8.07c-.18-.67-.42-1.74-.42-1.74h0s-.24,1.07-.43,1.74l-2.24,8.07h-1.44Z"/><path class="cls-1" d="M9,41.94H9a4.18,4.18,0,0,1-3.57,1.74C2.16,43.68,0,41.23,0,37.76s1.9-6,5.51-6c2.65,0,4.29,1.44,4.65,3.68H8.68A3,3,0,0,0,5.47,33c-2.75,0-4,2.07-4,4.76s1.64,4.67,4,4.67a3.24,3.24,0,0,0,3.45-3.52v-.27H5.44V37.39h4.88v6H9.4Z"/><path class="cls-1" d="M12.3,32h8.09v1.26H13.74v3.62h6v1.21h-6v4h6.84v1.33H12.3Z"/><path class="cls-1" d="M22.26,32h1.52L29,40c.39.59.84,1.47.84,1.47h0V32H31.2V43.44H29.73l-5.25-8c-.37-.56-.85-1.43-.85-1.43h0v9.4H22.26Z"/><path class="cls-1" d="M33.34,32h8.09v1.26H34.78v3.62h6v1.21h-6v4h6.84v1.33H33.34Z"/><path class="cls-1" d="M43.3,32h5.34A3.09,3.09,0,0,1,52,35.13,2.71,2.71,0,0,1,50,38v0c1.16.42,1.53,1.22,1.64,2.92s.32,2.3.53,2.45v.06H50.66c-.24-.21-.29-.64-.42-2.56-.11-1.68-.78-2.27-2.32-2.27H44.74v4.83H43.3Zm1.44,5.44h3.39c1.6,0,2.4-.8,2.4-2.1s-.64-2.1-2.32-2.1H44.74Z"/><path class="cls-1" d="M57.06,32h1.61L62.9,43.44H61.33L60.11,40H55.55l-1.23,3.49H52.85ZM56,38.78h3.74L58.4,34.94c-.22-.64-.51-1.62-.51-1.62h0s-.31,1-.53,1.62Z"/><path class="cls-1" d="M62,32H71v1.26H67.22V43.44H65.78V33.26H62Z"/><path class="cls-1" d="M72.48,32h1.44V43.44H72.48Z"/><path class="cls-1" d="M75.66,37.71c0-3.43,2.15-6,5.61-6s5.6,2.54,5.6,6-2.15,6-5.6,6S75.66,41.13,75.66,37.71Zm9.74,0C85.4,35,84,33,81.27,33s-4.13,2-4.13,4.72,1.44,4.71,4.13,4.71S85.4,40.4,85.4,37.71Z"/><path class="cls-1" d="M88.58,32H90.1l5.21,8c.39.59.84,1.47.84,1.47h0V32h1.34V43.44H96.05l-5.25-8C90.43,34.91,90,34,90,34h0v9.4H88.58Z"/><path class="cls-1" d="M103,32h1.62l4.22,11.44h-1.56L106,40h-4.56l-1.24,3.49H98.75Zm-1.09,6.78h3.75l-1.31-3.84c-.23-.64-.52-1.62-.52-1.62h0s-.3,1-.53,1.62Z"/><path class="cls-1" d="M110,32h1.44V42.11h6v1.33H110Z"/><path class="cls-1" d="M.43,48H5.2a3.42,3.42,0,0,1,2.72,1.1,3.3,3.3,0,0,1,.77,2.18c0,2.09-1.2,3.36-3.7,3.36H1.87v4.8H.43Zm1.44,5.47h3c1.62,0,2.39-.82,2.39-2.13s-.85-2.1-2.31-2.1H1.87Z"/><path class="cls-1" d="M12.5,48h1.61l4.23,11.44H16.77L15.55,56H11L9.76,59.44H8.29Zm-1.09,6.78h3.74l-1.31-3.84c-.22-.64-.51-1.62-.51-1.62h0s-.31,1-.53,1.62Z"/><path class="cls-1" d="M17.41,48h9.06v1.26H22.66V59.44H21.22V49.26H17.41Z"/><path class="cls-1" d="M27.89,48h1.44v4.86h6.11V48h1.44V59.44H35.44V54H29.33v5.41H27.89Z"/><path class="cls-1" d="M38.3,55.57h1.41c.19,1.93,1.38,2.94,3.54,2.94,1.58,0,2.72-.72,2.72-2.14S44.59,54.43,42.54,54,38.8,53,38.8,50.8c0-1.89,1.57-3,3.89-3,2.86,0,4.05,1.46,4.34,3.57H45.67a2.65,2.65,0,0,0-3-2.45c-1.55,0-2.58.66-2.58,1.84s1.29,1.68,3,2c2.22.45,4.26,1,4.26,3.57,0,2.14-1.75,3.34-4.21,3.34C40,59.66,38.43,57.87,38.3,55.57Z"/></svg>